<?xml version="1.0" encoding="UTF-8"?>
<svg id="OBJECTS" xmlns="http://www.w3.org/2000/svg" viewBox="0 0 134.64 84.28">
  <defs>
    <style>
      .cls-1 {
        fill: #fff;
      }

      .cls-2 {
        fill: #3a261b;
      }

      .cls-3 {
        fill: #cc3434;
      }
    </style>
  </defs>
  <g>
    <path class="cls-1" d="m132.57,35.48c1.23-6.94-2.07-14.11-7.15-18.99-5.08-4.88-11.72-7.79-18.42-9.98C79.05-2.61,47.58-.38,21.19,12.6c-5.33,2.62-10.53,5.73-14.57,10.08S-.21,32.8.01,38.74c.23,6.09,3.74,11.89,8.83,15.25,5.09,3.36,11.61,4.32,17.56,2.96,1.84,6.49.47,13.81-3.59,19.2,7.06-1.37,13.02-4.78,19.4-10.35,3.21-.62,8.21,1.17,12.28,1.38,19.31,1,37.22-4.43,55.33-11.23,5.01-1.88,9.99-4.02,14.2-7.32,4.21-3.3,7.62-7.88,8.55-13.14Z"/>
    <g>
      <path class="cls-2" d="m133.95,38.47l.34-1.39c.07-.48.14-.97.21-1.45.09-.49.08-.92.1-1.38l.03-.67c.02-.3-.02-.49-.03-.74-.14-3.74-1.46-7.22-3.31-10.01-1.82-2.83-4.07-5.07-6.28-6.92-2.2-1.87-4.45-3.26-6.46-4.44-2.02-1.15-3.84-2.05-5.36-2.73-1.51-.7-2.73-1.16-3.57-1.47-.83-.32-1.27-.49-1.27-.49,0,0,.43.2,1.23.58.4.19.9.43,1.48.7.57.3,1.23.63,1.96,1.01,1.47.76,3.22,1.75,5.15,3,1.91,1.27,4.03,2.77,6.1,4.66,2.07,1.88,4.13,4.14,5.78,6.84,1.67,2.68,2.74,5.91,2.83,9.29,0,.2.04.46.02.6l-.04.67c-.03.44-.03.92-.12,1.31l-.21,1.24-.33,1.26c-.52,1.66-1.23,3.29-2.17,4.82-1.89,3.05-4.48,5.75-7.41,8.02-2.91,2.3-6.1,4.27-9.4,5.91-3.3,1.64-6.66,3.05-9.99,4.2-6.66,2.31-13.12,3.77-18.7,4.72-2.79.48-5.37.82-7.66,1.1-2.29.26-4.3.45-5.95.56-1.65.13-2.96.2-3.84.25-.89.05-1.36.08-1.36.08,0,0,.47,0,1.36.03.89.01,2.2.07,3.86.02,1.66-.01,3.68-.09,6-.22,2.31-.14,4.93-.33,7.76-.72,2.84-.35,5.9-.84,9.11-1.54,3.21-.69,6.58-1.52,9.98-2.66,3.41-1.13,6.89-2.46,10.28-4.14,3.4-1.67,6.71-3.68,9.77-6.07,3.04-2.39,5.78-5.26,7.81-8.58,1.01-1.66,1.77-3.46,2.3-5.3Z"/>
      <path class="cls-2" d="m72.94,1.61c2.27-.02,4.46,0,6.61.09,4.29.16,8.34.52,12.06,1.01,3.72.5,7.11,1.08,10.09,1.71,2.99.62,5.56,1.32,7.66,1.92,2.1.63,3.74,1.15,4.85,1.54,1.11.39,1.7.6,1.7.6,0,0-.58-.24-1.66-.7-1.09-.45-2.69-1.1-4.78-1.81-4.16-1.41-10.23-3.19-17.72-4.36-3.74-.59-7.81-1.06-12.14-1.34-2.16-.15-4.41-.23-6.66-.27-2.29-.04-4.61.01-6.98.1-9.46.38-19.54,1.79-29.28,4.64-4.84,1.49-9.6,3.31-14.05,5.62-4.44,2.3-8.62,5.05-12.07,8.42-3.48,3.31-6.15,7.42-7.17,11.81-.53,2.22-.62,4.38-.38,6.48.24,2.09.9,4.04,1.71,5.78,1.62,3.53,4.05,6.17,6.3,8.26,2.28,2.09,4.51,3.61,6.37,4.79.94.58,1.78,1.09,2.54,1.48.75.41,1.39.76,1.92,1.01,1.06.52,1.62.79,1.62.79,0,0-.55-.31-1.57-.89-1.03-.58-2.5-1.48-4.31-2.71-1.79-1.25-3.93-2.85-6.07-4.99-.53-.54-1.09-1.09-1.6-1.71-.26-.31-.53-.61-.79-.93-.25-.33-.5-.66-.75-1-.99-1.36-1.95-2.86-2.66-4.55-.72-1.68-1.29-3.52-1.47-5.47-.18-1.94-.02-4.03.51-5.99,1.05-4.03,3.65-7.78,6.97-10.94,3.32-3.19,7.38-5.82,11.72-8.02,4.35-2.21,9.02-3.95,13.78-5.37,9.53-2.87,19.46-4.36,28.8-4.82,2.33-.12,4.64-.15,6.88-.19Z"/>
      <path class="cls-2" d="m57.52,68c-2.61-.35-5.2-.79-7.78-1.28-2.58-.49-5.14-1.08-7.68-1.74l-.78-.2-.24.81c-.14.47-.36,1.03-.6,1.54-.24.52-.51,1.03-.81,1.52-.58.99-1.27,1.93-2.01,2.82-1.5,1.77-3.23,3.35-5.15,4.68-1.91,1.35-3.99,2.46-6.15,3.39-1.07.48-2.18.89-3.29,1.28l-1.29.41c.16-.32.32-.64.47-.96.48-1,.92-2.01,1.33-3.03.82-2.05,1.53-4.15,2.08-6.3.55-2.15.93-4.36.99-6.61.03-1.12,0-2.25-.17-3.37-.08-.56-.18-1.12-.33-1.67-.13-.55-.33-1.09-.52-1.63l-.08-.23-.22-.11c-2.93-1.47-5.81-3.1-8.6-4.85-1.39-.88-2.75-1.81-4.04-2.83-1.27-1.03-2.55-2.1-3.5-3.47.83,1.44,2.01,2.66,3.24,3.77,1.24,1.12,2.55,2.15,3.89,3.13,2.61,1.91,5.35,3.62,8.18,5.22.6,1.9.79,3.94.65,5.97-.13,2.1-.56,4.19-1.12,6.24-.57,2.05-1.3,4.06-2.13,6.03-.42.98-.86,1.96-1.33,2.92-.46.96-.96,1.93-1.47,2.82l-1.14,2,2.2-.6,1.78-.48,1.76-.55c1.16-.4,2.32-.82,3.45-1.31,2.26-.99,4.45-2.18,6.47-3.63.51-.35,1-.74,1.49-1.12.48-.39.96-.8,1.41-1.22.92-.84,1.77-1.76,2.56-2.73.78-.98,1.5-2,2.12-3.1.31-.55.6-1.11.85-1.69.15-.35.29-.7.42-1.07,2.34.53,4.7.97,7.07,1.35,2.63.42,5.27.72,7.91.95,2.64.24,5.3.34,7.95.4,1.32.03,2.65.03,3.97.01,1.32-.01,2.64-.08,3.97-.13-2.64-.12-5.28-.26-7.91-.48-2.63-.21-5.25-.53-7.86-.87Z"/>
    </g>
  </g>
  <g>
    <path class="cls-3" d="m52.58,21.35c1.41,1.22,2.11,2.95,2.11,5.18,0,2.05-.67,3.66-2.02,4.8-1.34,1.15-3.12,1.73-5.33,1.75l-.16,2.46h-4.92l-.16-6.1h1.97c1.68,0,2.97-.21,3.85-.62s1.33-1.17,1.33-2.26c0-.76-.21-1.37-.62-1.8-.42-.44-1-.66-1.74-.66-.79,0-1.4.22-1.84.67-.44.45-.66,1.05-.66,1.82h-5.28c-.04-1.33.23-2.54.84-3.61.6-1.07,1.5-1.92,2.69-2.54,1.19-.62,2.63-.93,4.31-.93,2.34,0,4.21.61,5.62,1.84Zm-10.2,21.85c-.62-.58-.93-1.29-.93-2.15s.31-1.61.93-2.2c.62-.59,1.43-.89,2.41-.89s1.75.29,2.38.89c.62.59.93,1.32.93,2.2s-.31,1.57-.93,2.15-1.42.87-2.38.87-1.79-.29-2.41-.87Z"/>
    <path class="cls-3" d="m77.16,21.35c1.41,1.22,2.12,2.95,2.12,5.18,0,2.05-.67,3.66-2.02,4.8s-3.12,1.73-5.33,1.75l-.16,2.46h-4.92l-.16-6.1h1.97c1.68,0,2.97-.21,3.85-.62.89-.42,1.33-1.17,1.33-2.26,0-.76-.21-1.37-.62-1.8-.42-.44-1-.66-1.74-.66-.79,0-1.4.22-1.84.67-.44.45-.66,1.05-.66,1.82h-5.28c-.04-1.33.23-2.54.84-3.61.6-1.07,1.5-1.92,2.69-2.54,1.19-.62,2.63-.93,4.31-.93,2.34,0,4.21.61,5.62,1.84Zm-10.2,21.85c-.62-.58-.93-1.29-.93-2.15s.31-1.61.93-2.2c.62-.59,1.43-.89,2.41-.89s1.75.29,2.38.89c.62.59.93,1.32.93,2.2s-.31,1.57-.93,2.15-1.42.87-2.38.87-1.79-.29-2.41-.87Z"/>
    <path class="cls-3" d="m101.75,21.35c1.41,1.22,2.12,2.95,2.12,5.18,0,2.05-.67,3.66-2.02,4.8s-3.12,1.73-5.33,1.75l-.16,2.46h-4.92l-.16-6.1h1.97c1.68,0,2.97-.21,3.85-.62.89-.42,1.33-1.17,1.33-2.26,0-.76-.21-1.37-.62-1.8-.42-.44-1-.66-1.74-.66-.79,0-1.4.22-1.84.67-.44.45-.66,1.05-.66,1.82h-5.28c-.04-1.33.23-2.54.84-3.61.6-1.07,1.5-1.92,2.69-2.54,1.19-.62,2.63-.93,4.31-.93,2.34,0,4.21.61,5.62,1.84Zm-10.2,21.85c-.62-.58-.93-1.29-.93-2.15s.31-1.61.93-2.2c.62-.59,1.43-.89,2.41-.89s1.75.29,2.38.89c.62.59.93,1.32.93,2.2s-.31,1.57-.93,2.15-1.42.87-2.38.87-1.79-.29-2.41-.87Z"/>
  </g>
</svg>