<?xml version="1.0" encoding="UTF-8"?>
<svg id="OBJECTS" xmlns="http://www.w3.org/2000/svg" viewBox="0 0 122.18 117.02">
  <defs>
    <style>
      .cls-1 {
        fill: #fff;
      }

      .cls-2 {
        fill: #3a261b;
      }
    </style>
  </defs>
  <g>
    <path class="cls-1" d="m108.01,116.65c1.92-.15,3.86-1,4.95-2.59,1.08-1.59,1.06-3.98-.35-5.29-.77-.71-1.83-1.05-2.88-1.09-1.05-.04-2.09.18-3.1.45-1.12.3-2.26.67-3.16,1.4-.64.51-1.14,1.2-1.36,1.99-.4,1.48.34,3.11,1.55,4.04,1.22.93,2.82,1.22,4.35,1.1Z"/>
    <path class="cls-1" d="m104.85,84.91c-3.1.06-6.09,1.58-8.17,3.88-.81.9-1.5,1.92-1.9,3.06-.4,1.14-.48,2.41-.1,3.56.51,1.55,1.82,2.75,3.3,3.43,1.48.68,3.14.9,4.77.99,1.8.1,3.63.05,5.37-.46,1.73-.51,3.36-1.5,4.38-2.99,1.6-2.34,1.38-5.67-.27-7.97-1.65-2.3-4.55-3.55-7.38-3.5Z"/>
    <path class="cls-1" d="m46.05,6.95c-3.17,1.76-6.14,4.1-9.69,4.82-2.63.53-5.35.12-8.03.14-10.57.06-20.69,7.51-23.89,17.59-3.2,10.08.78,22,9.38,28.15-3.34,8.93-.77,19.75,6.23,26.22,6.99,6.47,17.98,8.2,26.62,4.18,6.06,8.83,17.83,13.31,28.22,10.74,10.4-2.57,18.72-12.02,19.96-22.66,11.41.04,22.39-8.02,25.77-18.92,3.38-10.9-1.1-23.76-10.53-30.19-5.48-3.74-12.66-5.33-18.94-3.18-3.12-8.57-10.12-15.64-18.66-18.83s-18.46-2.46-26.44,1.95Z"/>
    <g>
      <path class="cls-2" d="m12.62,17.52c-.41.27-.9.55-1.39.94-1.01.73-2.11,1.74-3.21,2.99-1.07,1.26-2.13,2.78-2.98,4.5-.84,1.73-1.39,3.5-1.73,5.12-.31,1.63-.43,3.13-.39,4.37-.01.62.06,1.18.1,1.67.04.49.11.91.18,1.25.13.67.21,1.05.21,1.05,0,0,.03-.38.07-1.06.01-.34.04-.75.11-1.23.06-.48.1-1.02.22-1.61.18-1.19.51-2.57.96-4.06.48-1.49,1.09-3.09,1.87-4.7.8-1.61,1.68-3.07,2.57-4.36.91-1.27,1.79-2.38,2.62-3.25.39-.46.8-.82,1.13-1.16.33-.35.65-.62.9-.84.51-.46.79-.71.79-.71,0,0-.34.17-.95.48-.31.15-.68.35-1.09.63Z"/>
      <path class="cls-2" d="m54.98,101.23c1.92.74,4.27,1.52,7,1.93,2.71.4,5.76.5,8.92.1,6.33-.78,11.64-3.38,14.95-5.8.83-.61,1.58-1.16,2.18-1.72.61-.54,1.15-.99,1.53-1.42.79-.82,1.23-1.28,1.23-1.28,0,0-.5.38-1.41,1.07-.44.36-1.03.73-1.69,1.18-.65.47-1.45.91-2.32,1.41-3.48,1.99-8.68,4.04-14.69,4.78-3,.38-5.89.4-8.51.18-2.62-.22-4.94-.76-6.88-1.27-1.93-.54-3.39-1.24-4.3-1.91-.46-.33-.78-.63-.99-.84-.2-.22-.31-.33-.31-.33,0,0,.09.13.25.38.18.24.45.6.87,1,.82.82,2.26,1.76,4.18,2.54Z"/>
      <path class="cls-2" d="m110.52,30.94c-2.23-2.19-4.79-3.82-7.32-4.9-2.54-1.09-5.07-1.67-7.4-1.88-1.69-.16-3.26-.11-4.69.04-.34-1.15-.76-2.38-1.31-3.67-1.52-3.53-3.99-7.53-7.74-11.07-.61-.58-1.26-1.14-1.94-1.68.89.52,1.87,1.18,2.9,1.95,1.12.88,2.29,1.9,3.43,3.06,1.13,1.18,2.11,2.38,2.95,3.53.82,1.16,1.5,2.26,2.01,3.23.28.47.47.93.66,1.32.2.39.35.74.46,1.03.24.58.38.9.38.9,0,0-.04-.35-.11-.97-.03-.31-.09-.7-.19-1.13-.1-.44-.19-.95-.37-1.49-.31-1.1-.83-2.36-1.56-3.7-.75-1.32-1.72-2.7-2.94-3.97-1.23-1.26-2.58-2.27-3.87-3.07-1.31-.77-2.56-1.33-3.64-1.68-.53-.2-1.04-.31-1.47-.42-.27-.07-.51-.12-.74-.16-3.04-2.07-6.58-3.76-10.44-4.84-2.86-.79-5.75-1.23-8.54-1.35-2.8-.09-5.5.1-8.03.56-5.06.91-9.38,2.96-12.38,5.42-2.4,1.94-3.97,4.02-4.99,5.76-1.92-.06-4.21.03-6.81.14-2.05.11-4.3.29-6.7.75-2.39.46-4.95,1.21-7.41,2.56-4.95,2.63-9.15,7.66-11.24,13.74C.42,31.98-.08,35.13,0,38.17c.07,3.04.72,5.94,1.7,8.52,1.98,5.2,5.22,9.15,8.33,11.85.9.8,1.78,1.48,2.64,2.1-.43,1.26-.85,2.69-1.19,4.3-.72,3.51-1.05,7.94.16,12.65.6,2.34,1.55,4.74,2.99,6.98.34.53.71,1.05,1.1,1.56-.67-.77-1.31-1.59-1.9-2.49-2.89-4.44-3.89-9.34-4.25-12.85-.19-1.77-.22-3.23-.24-4.23,0-1.01,0-1.57,0-1.57,0,0-.12.55-.28,1.55-.15,1-.35,2.46-.38,4.29-.04,1.82.08,4.02.6,6.42.52,2.39,1.48,4.98,3.04,7.38,1.55,2.4,3.56,4.35,5.65,5.68,2.1,1.35,4.24,2.04,6.03,2.43.35.08.68.14,1.01.19,3.45,1.31,7.06,1.76,10.33,1.55,4.16-.27,7.77-1.49,10.69-2.94.98,1.44,2.45,3.07,4.54,4.53,2.85,1.99,6.8,3.67,11.43,4.15,4.59.51,9.8,0,14.8-1.96,4.99-1.94,9.23-5.06,12.19-8.62,3-3.54,4.79-7.37,5.8-10.67.29-.94.51-1.83.69-2.67,1.34.01,2.78-.05,4.33-.23,2.31-.3,4.83-.91,7.34-2.11,2.5-1.19,4.98-3.04,6.87-5.58,3.81-5.08,5.41-12.18,4.77-19.33-.65-7.18-3.81-13.72-8.26-18.11Zm2.27,36.54c-1.68,2.39-3.88,4.17-6.2,5.38-2.32,1.21-4.71,1.92-6.93,2.32-1.44.25-2.79.37-4.06.44.34-1.86.45-3.46.47-4.68.01-.96-.01-1.7-.06-2.2-.03-.5-.05-.77-.05-.77,0,0,0,.26-.03.77,0,.5-.05,1.24-.14,2.19-.13,1.25-.38,2.87-.88,4.73-2.38.08-4.42-.09-6-.22-2.55-.24-3.96-.45-3.96-.45,0,0,1.38.32,3.92.73,1.53.23,3.51.51,5.86.58-.22.76-.49,1.56-.8,2.39-1.19,3.14-3.12,6.71-6.09,9.97-2.93,3.27-6.98,6.11-11.7,7.95-4.72,1.85-9.63,2.44-14.01,2.13-4.38-.3-8.22-1.67-11.08-3.4-2.05-1.25-3.57-2.68-4.63-3.98.35-.18.7-.36,1.03-.54,3.15-1.76,5.38-3.65,6.84-5,.73-.68,1.28-1.23,1.63-1.61.36-.38.55-.58.55-.58,0,0-.21.18-.6.53-.39.35-.98.84-1.76,1.45-1.56,1.21-3.9,2.9-7.07,4.42-.39.19-.8.38-1.22.56-.17-.23-.32-.46-.46-.68-.49-.81-.84-1.46-1.02-1.93-.2-.46-.31-.7-.31-.7,0,0,.08.25.23.73.14.49.42,1.17.85,2.04.11.21.23.44.37.67-2.88,1.2-6.35,2.17-10.21,2.28-4.54.12-9.66-1-13.95-3.95-4.32-2.93-6.96-7.48-8.22-11.83-1.29-4.39-1.22-8.64-.73-12.1.22-1.51.51-2.87.83-4.09,1.91,1.3,3.66,2.18,5.01,2.79.53.22,1,.42,1.4.59.42.14.77.27,1.05.37.57.2.87.3.87.3,0,0-.29-.13-.84-.37-.27-.12-.61-.27-1.02-.45-.39-.2-.84-.43-1.34-.69-1.35-.73-3.08-1.77-4.95-3.24.36-1.29.74-2.39,1.06-3.29.69-1.86,1.15-2.86,1.15-2.86,0,0-.56.95-1.41,2.76-.38.82-.82,1.84-1.26,3.03-.75-.61-1.51-1.29-2.28-2.05-2.88-2.79-5.8-6.74-7.51-11.71-.85-2.48-1.39-5.2-1.41-8.03-.04-2.83.46-5.78,1.44-8.62,1.95-5.69,5.77-10.42,10.29-13.01,2.24-1.32,4.63-2.13,6.92-2.67,2.29-.54,4.5-.83,6.51-1.05,2.45-.23,4.62-.46,6.46-.54-.15.28-.29.55-.42.81-.47.96-.73,1.75-.91,2.28-.16.54-.24.82-.24.82,0,0,.11-.27.31-.79.23-.51.55-1.27,1.09-2.18.17-.3.38-.62.6-.96.33-.01.65-.02.96-.01-.85,1-1.57,1.96-2.15,2.8-.7,1.01-1.2,1.86-1.54,2.45-.33.6-.51.93-.51.93,0,0,.26-.27.73-.77.47-.49,1.15-1.2,2.01-2.05.94-.94,2.11-2.06,3.43-3.25,1.01.13,1.79.34,2.32.52.28.1.49.19.64.25.14.06.21.09.21.09,0,0-.07-.04-.21-.11-.14-.07-.34-.18-.62-.3-.48-.21-1.19-.47-2.11-.67,1-.9,2.09-1.85,3.24-2.81,1.39-1.15,2.76-2.25,4-3.17,1.25-.91,2.45-1.6,3.54-1.98,1.08-.38,2.04-.46,2.7-.39.33.04.59.08.76.13.17.04.27.06.27.06,0,0-.08-.05-.24-.14-.15-.1-.4-.21-.73-.34-.65-.25-1.71-.41-2.98-.21-1.27.2-2.71.75-4.14,1.58-1.43.84-2.88,1.87-4.33,3.07-1.53,1.28-2.86,2.62-3.97,3.9-.31-.03-.63-.05-.97-.07,1.12-1.58,2.76-3.41,5.07-5.07,3.02-2.18,7.22-3.93,12.09-4.64,2.43-.36,5.03-.48,7.69-.34,2.67.16,5.41.61,8.14,1.36,5.45,1.53,10.29,4.2,13.95,7.47,3.69,3.26,6.27,6.99,7.95,10.33.58,1.18,1.06,2.32,1.46,3.38-.31.04-.62.08-.91.13-.45.09-.89.19-1.31.27-.42.1-.81.24-1.19.34-.76.2-1.42.51-2.02.74-1.18.53-2.06,1.01-2.62,1.4-.57.37-.87.56-.87.56,0,0,.31-.17.9-.49.58-.34,1.49-.75,2.68-1.2.61-.19,1.27-.45,2.03-.6.38-.08.77-.19,1.18-.27.41-.06.84-.12,1.29-.19.33-.04.69-.06,1.04-.09.6,1.71.98,3.23,1.21,4.44.19,1.04.32,1.86.37,2.41.07.56.1.85.1.85,0,0,0-.29-.02-.85,0-.56-.06-1.39-.17-2.45-.13-1.2-.39-2.71-.86-4.43,1.36-.06,2.84-.02,4.4.2,4.43.61,9.66,2.7,13.75,6.96,4.07,4.25,6.94,10.43,7.55,17.22.61,6.75-.82,13.49-4.21,18.26Z"/>
      <path class="cls-2" d="m118.57,40.29c-1.23-2.07-2.13-3.25-2.13-3.25,0,0,.5,1.39,1.32,3.63.79,2.23,1.86,5.3,2.42,8.74.57,3.44.39,6.64.02,8.95-.19,1.15-.39,2.09-.57,2.73-.17.64-.27,1-.27,1,0,0,.2-.31.53-.9.33-.59.76-1.47,1.17-2.61.82-2.27,1.5-5.71.88-9.46-.61-3.74-2.18-6.77-3.38-8.83Z"/>
      <path class="cls-2" d="m95.94,88.08c1.83-2.22,4.06-3.31,5.55-3.96.76-.32,1.37-.52,1.79-.66.42-.13.64-.19.64-.19,0,0-.23.04-.66.12-.43.09-1.06.23-1.86.47-1.57.51-3.96,1.39-6.12,3.63-1.07,1.11-2.01,2.61-2.52,4.4-.5,1.77-.56,3.91.32,5.92.88,2,2.64,3.64,4.73,4.59,2.08.98,4.51,1.36,6.91,1.11,2.4-.27,4.7-1.13,6.52-2.58,1.83-1.42,3.1-3.47,3.53-5.55.45-2.08.2-4.19-.64-5.89-.85-1.71-2.27-2.91-3.68-3.55-1.41-.68-2.8-.89-3.99-1.02-.94-.09-1.77-.09-2.49-.07.69-.33,1.34-.61,1.91-.82.6-.22,1.1-.39,1.46-.49.36-.11.56-.17.56-.17,0,0-.21-.04-.57-.11-.37-.07-.92-.12-1.61-.12-1.36,0-3.31.39-5.12,1.52-1.81,1.13-3.01,2.72-3.61,3.93-.31.61-.5,1.13-.6,1.49-.1.36-.15.57-.15.57,0,0,.14-.15.4-.43.24-.28.62-.66,1.08-1.1.92-.89,2.26-1.96,3.84-2.95.63-.39,1.24-.73,1.84-1.04,0,0,0,0,.02,0,.83.05,1.84.12,2.98.33,1.13.22,2.43.54,3.65,1.25,1.23.68,2.36,1.79,2.98,3.27.62,1.47.74,3.28.28,5.03-.45,1.76-1.53,3.36-3.11,4.54-1.56,1.19-3.56,1.92-5.66,2.15-4.17.48-8.51-1.33-10.08-4.55-.78-1.58-.85-3.39-.5-4.98.35-1.6,1.1-3.01,2-4.1Z"/>
      <path class="cls-2" d="m101.09,112.41c.05.7.37,1.45.86,2.02,1.01,1.13,2.36,1.82,3.89,2.27,1.53.42,3.31.47,5.01-.17,1.68-.63,3.22-1.89,4.05-3.68.39-.87.7-1.9.38-3.05-.16-.57-.58-1.12-1.02-1.42-.44-.32-.86-.5-1.27-.66-1.67-.65-3.38-.68-4.89-.53-1.53.16-2.91.51-4.17.85-.13.03-.25.07-.38.11.52-.58,1.1-1,1.58-1.27.53-.29.99-.44,1.3-.53.32-.07.48-.11.48-.11,0,0-.17.01-.5.03-.32.04-.81.12-1.4.35-.59.23-1.29.62-1.97,1.23-.19.18-.39.39-.57.62-.72.23-1.41.49-2.04.78-2.1.94-3.45,2.36-4.07,3.45-.32.55-.49,1.01-.59,1.32-.09.32-.12.48-.12.48,0,0,.06-.16.2-.46.14-.29.37-.72.75-1.19.74-.96,2.14-2.1,4.18-2.78.26-.09.56-.16.84-.24-.1.21-.19.43-.26.66-.19.57-.3,1.21-.24,1.9Zm3.09-3.17c1.27-.24,2.62-.47,4.01-.54,1.39-.06,2.84.05,4.14.61.33.14.65.29.86.46.22.17.31.31.38.54.13.45,0,1.15-.31,1.8-.59,1.3-1.76,2.31-3.04,2.83-1.28.53-2.72.57-4.02.3-1.29-.29-2.55-.86-3.34-1.62-.8-.75-.89-1.87-.66-2.87.09-.42.23-.81.4-1.17.51-.12,1.03-.23,1.59-.33Z"/>
    </g>
  </g>
  <g>
    <path d="m32.94,53.08c-.66-.37-1.18-.88-1.57-1.54-.39-.66-.58-1.4-.58-2.23s.19-1.56.58-2.22c.39-.66.91-1.17,1.57-1.54.66-.37,1.39-.55,2.18-.55s1.52.18,2.18.55c.66.37,1.18.88,1.56,1.54.38.66.57,1.4.57,2.22s-.19,1.57-.58,2.23c-.38.66-.9,1.17-1.56,1.54-.66.37-1.38.55-2.17.55s-1.52-.18-2.18-.55Zm3.79-1.99c.4-.45.61-1.04.61-1.78s-.2-1.34-.61-1.78c-.4-.44-.94-.67-1.61-.67s-1.22.22-1.63.66c-.4.44-.61,1.04-.61,1.79s.2,1.34.61,1.78c.4.44.95.67,1.63.67s1.21-.22,1.61-.67Z"/>
    <path d="m46.53,47.54c.46.51.7,1.21.7,2.09v3.91h-2.04v-3.64c0-.45-.12-.8-.35-1.04-.23-.25-.54-.37-.94-.37s-.7.12-.94.37c-.23.25-.35.6-.35,1.04v3.64h-2.05v-8.88h2.05v3.08c.21-.3.49-.53.85-.71.36-.18.76-.26,1.21-.26.77,0,1.38.25,1.85.76Z"/>
    <path d="m51.18,48.38c.26-.52.61-.92,1.06-1.2.45-.28.95-.42,1.5-.42.44,0,.84.09,1.21.28.36.18.65.43.86.74v-3.11h2.05v8.88h-2.05v-.96c-.19.32-.47.58-.82.77-.36.19-.77.29-1.24.29-.55,0-1.05-.14-1.5-.43-.45-.28-.8-.69-1.06-1.21s-.39-1.13-.39-1.82.13-1.29.39-1.81Zm4.2.61c-.28-.3-.63-.44-1.04-.44s-.75.15-1.04.44-.43.69-.43,1.21.14.92.43,1.22c.28.3.63.45,1.04.45s.75-.15,1.04-.44c.28-.3.43-.7.43-1.21s-.14-.92-.43-1.21Z"/>
    <path d="m59.33,48.38c.26-.52.61-.92,1.06-1.2.45-.28.95-.42,1.5-.42.47,0,.89.1,1.24.29.36.19.63.44.82.76v-.95h2.05v6.7h-2.05v-.95c-.2.31-.48.56-.83.76-.36.19-.77.29-1.24.29-.54,0-1.04-.14-1.49-.43-.45-.28-.8-.69-1.06-1.21s-.39-1.13-.39-1.82.13-1.29.39-1.81Zm4.2.61c-.28-.3-.63-.44-1.04-.44s-.75.15-1.04.44-.43.69-.43,1.21.14.92.43,1.22c.28.3.63.45,1.04.45s.75-.15,1.04-.44c.28-.3.43-.7.43-1.21s-.14-.92-.43-1.21Z"/>
    <path d="m78.03,47.54c.49.5.74,1.2.74,2.1v3.91h-2.04v-3.64c0-.43-.11-.77-.34-1-.23-.24-.54-.35-.94-.35s-.71.12-.94.35c-.23.24-.34.57-.34,1v3.64h-2.04v-3.64c0-.43-.11-.77-.34-1-.23-.24-.54-.35-.94-.35s-.71.12-.94.35c-.23.24-.34.57-.34,1v3.64h-2.05v-6.7h2.05v.84c.21-.28.48-.5.82-.67s.72-.25,1.14-.25c.5,0,.95.11,1.35.32.4.22.71.52.93.92.23-.37.55-.67.95-.9.4-.23.84-.35,1.31-.35.83,0,1.49.25,1.99.76Z"/>
    <path d="m86.16,47.54c.47.51.7,1.21.7,2.09v3.91h-2.04v-3.64c0-.45-.12-.8-.35-1.04-.23-.25-.54-.37-.94-.37s-.7.12-.94.37c-.23.25-.35.6-.35,1.04v3.64h-2.05v-6.7h2.05v.89c.21-.3.49-.53.84-.7.35-.17.75-.26,1.19-.26.78,0,1.41.25,1.88.76Z"/>
  </g>
</svg>