<?xml version="1.0" encoding="UTF-8"?>
<svg id="OBJECTS" xmlns="http://www.w3.org/2000/svg" viewBox="0 0 143.22 119.66">
  <defs>
    <style>
      .cls-1 {
        fill: #fff;
      }

      .cls-2 {
        fill: #3a261b;
      }

      .cls-3 {
        fill: #d56538;
      }
    </style>
  </defs>
  <g>
    <path class="cls-1" d="m3.62,80.5c4.26,4.53,11.38,4.39,17.58,3.93,3.5,8.15,7.01,16.31,10.51,24.46,2.9-4.75,5.81-9.49,8.71-14.24,1.55-2.53,3.18-5.15,5.71-6.69,3.63-2.21,8.21-1.72,12.44-1.29,20.67,2.1,41.67,1,62.01-3.24,4.98-1.04,10.19-2.41,13.77-6.02,5.73-5.78,5.37-15.04,4.62-23.14-1.17-12.62-2.34-25.23-3.5-37.85-.21-2.32-.47-4.76-1.84-6.65-2-2.78-5.75-3.55-9.13-4.07C89.43.33,53.72-.9,18.37,2.04c-4.87.4-10.34,1.22-13.18,5.2-1.86,2.62-2.11,6.01-2.3,9.22-.92,15.96-1.83,31.92-2.75,47.88-.33,5.67-.41,12.03,3.48,16.16Z"/>
    <g>
      <path class="cls-2" d="m52.2,82.26l6.95-.14c4.63-.09,9.27-.19,13.9-.33-4.63-.14-9.27-.23-13.9-.33l-6.95-.14-6.95-.09h-.36s-.16.34-.16.34l-8.03,17.54-6.89,15.38-3.88-13.06-4.68-15.35-.2-.65h-.68s-2.67.01-2.67.01c-.29-.83-.56-1.62-.81-2.34-.42-1.23-.83-2.24-1.08-2.96-.28-.71-.44-1.11-.44-1.11,0,0,.09.43.26,1.17.18.74.41,1.8.74,3.06.18.67.37,1.41.57,2.18l-5.37.02h-2.2s-1.09.01-1.09.01c-.32-.02-.65-.02-.97-.08-1.28-.18-2.51-.77-3.46-1.66-.97-.87-1.66-2.05-1.96-3.31-.09-.33-.12-.59-.17-.93l-.03-.55c-.01-.1,0-.34-.01-.51l-.03-2.2-.11-8.81c-.09-5.87-.12-11.74-.26-17.61-.13-5.87-.22-11.74-.4-17.61-.18,5.87-.27,11.74-.4,17.61-.14,5.87-.17,11.74-.26,17.61l-.11,8.81-.03,2.2c0,.2-.01.33,0,.59l.02.55c.04.38.08.85.19,1.23.37,1.59,1.22,3.06,2.42,4.17,1.19,1.12,2.72,1.88,4.34,2.12.4.08.81.09,1.22.11h1.11s2.2.02,2.2.02l5.86.02c.03.11.06.21.09.32.43,1.57.93,3.23,1.42,4.9.51,1.66,1.02,3.32,1.53,4.86.5,1.55,1.02,2.98,1.44,4.21.42,1.23.83,2.24,1.08,2.96.28.71.44,1.11.44,1.11,0,0-.09-.43-.25-1.17-.18-.74-.4-1.8-.74-3.06-.34-1.26-.7-2.74-1.14-4.3-.43-1.57-.93-3.23-1.42-4.9-.51-1.66-1.02-3.32-1.53-4.86,0-.02-.01-.04-.02-.06h1.38s4.39,14.74,4.39,14.74l4.7,15.35.71,2.33.97-2.23,7.72-17.68,7.44-17.41,6.57-.09Z"/>
      <path class="cls-2" d="m30.51,3.14c-7.44.09-14.58.12-21.45.25-1.85.16-3.56.94-4.83,2.17-1.28,1.22-2.1,2.84-2.34,4.52-.07.42-.08.84-.09,1.26,0,.4,0,.79,0,1.19,0,.79.01,1.57.02,2.34.01,1.55.02,3.06.03,4.55.2,23.77.33,39.62.33,39.62,0,0,.13-15.85.33-39.62.01-1.49.02-3,.03-4.55,0-.77.01-1.55.02-2.34,0-.8-.02-1.58.13-2.31.48-3,3.24-5.58,6.41-5.73,6.75.01,13.98.13,21.39.19,7.43.1,15.11.07,22.91.12,7.8.03,15.72.05,23.65.08,15.85-.05,31.7-.09,46.55-.13,1.86-.01,3.7-.03,5.52-.04.95-.02,1.7,0,2.51.2.79.2,1.53.54,2.19,1,1.33.92,2.29,2.33,2.67,3.85.04.19.1.34.12.58.02.19.07.48.08.59l.07,1.3c.05.86.09,1.72.14,2.57.36,6.8.7,13.23,1.02,19.16.68,11.87,1.25,21.76,1.65,28.68.42,6.92.67,10.88.67,10.88,0,0-.12-3.96-.33-10.89-.24-6.93-.58-16.83-.99-28.71-.23-5.94-.48-12.37-.74-19.18-.03-.85-.07-1.71-.1-2.57l-.05-1.3c-.02-.32-.05-.46-.07-.7-.01-.2-.09-.47-.13-.71-.43-1.88-1.55-3.58-3.14-4.74-.79-.58-1.69-1.02-2.65-1.28-.94-.28-2.03-.32-2.89-.31-1.82-.01-3.67-.03-5.52-.04-14.86-.04-30.71-.09-46.55-.13-7.92.03-15.85.05-23.65.08-7.8.04-15.48.01-22.91.12Z"/>
      <path class="cls-2" d="m143.04,75.79c-.07-.75-.15-1.48-.22-2.2-.56-5.75-1.11-10.54-1.45-13.9-.38-3.35-.6-5.27-.6-5.27,0,0,.08,1.93.22,5.3.18,3.37.37,8.18.71,13.95.04.72.08,1.46.13,2.21.04.74.1,1.54.09,2.23-.05.71-.19,1.42-.44,2.11-.26.68-.65,1.32-1.12,1.9-.94,1.17-2.33,1.98-3.85,2.3l-.54.08c-.18.03-.43.02-.64.04-.35.02-.86,0-1.28,0-.89,0-1.78-.02-2.69-.02-3.61-.03-7.35-.05-11.14-.08-3.79-.01-7.65-.02-11.5-.03-3.85.01-7.71.02-11.5.03-3.79.03-7.53.06-11.14.08-7.22.07-13.97.17-19.75.3-5.78.11-10.6.29-13.97.37-3.37.12-5.3.19-5.3.19,0,0,1.93.07,5.3.19,3.37.08,8.19.26,13.97.37,5.78.13,12.52.23,19.75.3,3.61.03,7.35.06,11.14.08,3.79.01,7.65.02,11.5.03,3.85-.01,7.71-.02,11.5-.03,3.79-.03,7.53-.06,11.14-.08.9,0,1.8-.02,2.69-.02.46-.01.84,0,1.37-.03.23-.02.42-.02.67-.06l.75-.13c1.88-.45,3.55-1.51,4.65-2.96,1.13-1.43,1.71-3.19,1.73-4.88-.02-.88-.11-1.6-.18-2.36Z"/>
      <path class="cls-2" d="m85.25.91c3.12.02,6.46.04,9.79.06,3.33-.02,6.67-.04,9.79-.06,3.12-.02,6.04-.11,8.54-.15,2.5-.04,4.58-.14,6.04-.18,1.46-.06,2.29-.09,2.29-.09,0,0-.83-.03-2.29-.09-1.46-.04-3.54-.13-6.04-.18-2.5-.04-5.42-.13-8.54-.15-3.13-.02-6.46-.04-9.79-.06-3.33.02-6.67.04-9.79.06-3.12.02-6.04.11-8.54.15-2.5.04-4.58.14-6.04.18-1.46.06-2.29.09-2.29.09,0,0,.83.03,2.29.09,1.46.04,3.54.14,6.04.18,2.5.04,5.42.13,8.54.15Z"/>
    </g>
  </g>
  <g>
    <path d="m29.95,27.35v5.04c0,.5.12.89.37,1.16.25.27.61.41,1.09.41s.85-.14,1.1-.41c.26-.27.38-.66.38-1.16v-5.04h2.05v5.03c0,.75-.16,1.39-.48,1.91s-.75.91-1.29,1.18-1.14.4-1.81.4-1.26-.13-1.78-.39c-.52-.26-.94-.65-1.24-1.18s-.46-1.16-.46-1.91v-5.03h2.05Z"/>
    <path d="m42.35,29.77c.47.51.7,1.21.7,2.09v3.91h-2.04v-3.64c0-.45-.12-.8-.35-1.04-.23-.25-.54-.37-.94-.37s-.7.12-.94.37c-.23.25-.35.6-.35,1.04v3.64h-2.05v-6.7h2.05v.89c.21-.3.49-.53.84-.7.35-.17.75-.26,1.19-.26.78,0,1.41.25,1.88.76Z"/>
    <path d="m46.53,26.9v8.88h-2.05v-8.88h2.05Z"/>
    <path d="m54.3,32.92h-4.64c.03.42.17.73.4.95.24.22.53.33.87.33.51,0,.87-.22,1.07-.65h2.18c-.11.44-.31.84-.61,1.19-.29.35-.66.63-1.1.83-.44.2-.93.3-1.48.3-.66,0-1.24-.14-1.75-.42-.51-.28-.91-.68-1.2-1.2s-.43-1.13-.43-1.82.14-1.3.43-1.82c.28-.52.68-.92,1.19-1.2.51-.28,1.1-.42,1.76-.42s1.22.14,1.73.41.9.66,1.18,1.16c.28.5.43,1.09.43,1.76,0,.19-.01.39-.04.6Zm-2.06-1.14c0-.35-.12-.63-.36-.84-.24-.21-.54-.31-.9-.31s-.63.1-.87.3c-.24.2-.38.48-.44.85h2.57Z"/>
    <path d="m55.39,30.61c.26-.52.61-.92,1.06-1.2.45-.28.95-.42,1.5-.42.47,0,.89.1,1.24.29.36.19.63.44.82.76v-.95h2.05v6.7h-2.05v-.95c-.2.31-.48.56-.83.76-.36.19-.77.29-1.24.29-.54,0-1.04-.14-1.49-.43-.45-.28-.8-.69-1.06-1.21s-.39-1.13-.39-1.82.13-1.29.39-1.81Zm4.2.61c-.28-.3-.63-.44-1.04-.44s-.75.15-1.04.44-.43.69-.43,1.21.14.92.43,1.22c.28.3.63.45,1.04.45s.75-.15,1.04-.44c.28-.3.43-.7.43-1.21s-.14-.92-.43-1.21Z"/>
    <path d="m64.72,35.57c-.46-.2-.82-.47-1.08-.82-.26-.35-.41-.74-.44-1.17h2.03c.02.23.13.42.32.56.19.14.43.22.71.22.26,0,.45-.05.59-.15.14-.1.21-.23.21-.39,0-.19-.1-.33-.3-.43-.2-.09-.52-.19-.97-.31-.48-.11-.88-.23-1.2-.35-.32-.12-.6-.32-.83-.59-.23-.27-.35-.63-.35-1.09,0-.38.11-.73.32-1.05.21-.32.52-.57.94-.75.41-.18.9-.28,1.47-.28.84,0,1.5.21,1.99.62s.76.97.83,1.66h-1.9c-.03-.23-.13-.42-.31-.55-.17-.14-.4-.2-.68-.2-.24,0-.42.05-.55.14s-.19.22-.19.38c0,.19.1.34.31.43.2.1.52.19.95.29.5.13.9.25,1.21.38.31.12.59.32.82.6.24.28.36.65.37,1.11,0,.39-.11.74-.33,1.05-.22.31-.54.55-.95.73s-.89.26-1.43.26c-.58,0-1.1-.1-1.56-.3Z"/>
    <path d="m76.22,29.77c.46.51.7,1.21.7,2.09v3.91h-2.04v-3.64c0-.45-.12-.8-.35-1.04-.23-.25-.54-.37-.94-.37s-.7.12-.94.37c-.23.25-.35.6-.35,1.04v3.64h-2.05v-8.88h2.05v3.08c.21-.3.49-.53.85-.71.36-.18.76-.26,1.21-.26.77,0,1.38.25,1.85.76Z"/>
    <path d="m86.95,27.35v1.64h-2.23v6.78h-2.05v-6.78h-2.23v-1.64h6.52Z"/>
    <path d="m93.94,29.77c.46.51.7,1.21.7,2.09v3.91h-2.04v-3.64c0-.45-.12-.8-.35-1.04-.23-.25-.54-.37-.94-.37s-.7.12-.94.37c-.23.25-.35.6-.35,1.04v3.64h-2.05v-8.88h2.05v3.08c.21-.3.49-.53.85-.71.36-.18.76-.26,1.21-.26.77,0,1.38.25,1.85.76Z"/>
    <path d="m102.34,32.92h-4.64c.03.42.17.73.4.95.24.22.53.33.87.33.51,0,.87-.22,1.07-.65h2.18c-.11.44-.31.84-.61,1.19-.29.35-.66.63-1.1.83-.44.2-.93.3-1.48.3-.66,0-1.24-.14-1.75-.42-.51-.28-.91-.68-1.2-1.2s-.43-1.13-.43-1.82.14-1.3.43-1.82.68-.92,1.19-1.2c.51-.28,1.1-.42,1.76-.42s1.22.14,1.73.41c.5.27.9.66,1.18,1.16.28.5.43,1.09.43,1.76,0,.19-.01.39-.04.6Zm-2.06-1.14c0-.35-.12-.63-.36-.84s-.54-.31-.9-.31-.63.1-.87.3c-.24.2-.38.48-.44.85h2.57Z"/>
    <path class="cls-3" d="m30.12,48.5h3.62v1.68h-5.95v-1.56l3.6-5.18h-3.6v-1.68h5.95v1.56l-3.62,5.18Z"/>
    <path class="cls-3" d="m37.14,41.75v8.42h-2.05v-8.42h2.05Z"/>
    <path class="cls-3" d="m48.16,41.75v8.42h-2.05v-5.05l-1.88,5.05h-1.66l-1.9-5.06v5.06h-2.05v-8.42h2.42l2.36,5.83,2.34-5.83h2.41Z"/>
    <path class="cls-3" d="m54.88,48.69h-3.14l-.5,1.49h-2.15l3.05-8.42h2.38l3.05,8.42h-2.17l-.5-1.49Zm-.53-1.58l-1.04-3.08-1.03,3.08h2.08Z"/>
    <path class="cls-3" d="m59.22,49.96c-.23-.21-.34-.47-.34-.79s.11-.59.34-.8c.23-.22.52-.32.88-.32s.64.11.87.32c.23.22.34.48.34.8s-.11.57-.34.79c-.23.21-.52.32-.87.32s-.65-.11-.88-.32Zm1.96-8.5l-.24,5.75h-1.74l-.24-5.75h2.22Z"/>
    <path class="cls-3" d="m63.93,49.96c-.23-.21-.34-.47-.34-.79s.11-.59.34-.8c.23-.22.52-.32.88-.32s.64.11.87.32c.23.22.34.48.34.8s-.11.57-.34.79c-.23.21-.52.32-.87.32s-.65-.11-.88-.32Zm1.96-8.5l-.24,5.75h-1.74l-.24-5.75h2.22Z"/>
    <path class="cls-3" d="m68.63,49.96c-.23-.21-.34-.47-.34-.79s.11-.59.34-.8c.23-.22.52-.32.88-.32s.64.11.87.32c.23.22.34.48.34.8s-.11.57-.34.79c-.23.21-.52.32-.87.32s-.65-.11-.88-.32Zm1.96-8.5l-.24,5.75h-1.74l-.24-5.75h2.22Z"/>
  </g>
</svg>