<?xml version="1.0" encoding="UTF-8"?>
<svg id="OBJECTS" xmlns="http://www.w3.org/2000/svg" viewBox="0 0 126.2 112.43">
  <defs>
    <style>
      .cls-1 {
        fill: #fff;
      }

      .cls-2 {
        fill: #3a261b;
      }
    </style>
  </defs>
  <g>
    <path class="cls-1" d="m124.88,36.21c-1.32-10.32-8.13-20.02-17.71-23.93-5.58-3.9-12.84-4.75-19.7-5.44-12.44-1.24-25.03-2.48-37.4-.67-13.71,2.01-27.25,8.15-35.86,19.02-8.6,10.86-11.32,26.83-4.57,38.94,4.14,7.43,11.36,12.83,19.24,16.03,7.88,3.21,16.44,4.41,24.93,4.97,10.97.73,22.11.42,32.75-2.33,10.64-2.75,20.8-8.08,28.13-16.27,7.33-8.19,11.57-19.41,10.17-30.31Z"/>
    <path class="cls-1" d="m85.65,98.97c1.56,1.28,3.73,1.54,5.74,1.42,1.31-.08,2.64-.31,3.78-.97.54-.31,1.02-.71,1.42-1.17.89-1.02,1.4-2.34,1.5-3.69.1-1.35-.19-2.71-.77-3.93-.69-1.47-1.84-2.77-3.35-3.38-1.27-.51-2.71-.5-4.03-.16-1.12.28-2.18.79-3.11,1.48-1.62,1.2-2.84,2.99-3.14,4.98-.3,1.99.4,4.16,1.96,5.43Z"/>
    <path class="cls-1" d="m112.18,104.31c.6-.59.86-1.47.89-2.32.06-1.53-.54-3.07-1.62-4.16s-2.62-1.7-4.15-1.65c-1.65.05-3.23.86-4.32,2.1-1.08,1.24-1.66,2.89-1.69,4.54-.01.88.16,1.82.78,2.43.56.54,1.37.72,2.14.81,2.26.26,4.59-.08,6.69-.99.46-.2.92-.43,1.27-.78Z"/>
    <path class="cls-1" d="m116.31,111.32c2.16.35,4.35-.51,6.2-1.67.69-.44,1.38-.94,1.8-1.64.42-.7.52-1.65.05-2.32-.42-.6-1.19-.85-1.91-.99-1.63-.33-3.33-.32-4.96,0-1.15.24-2.31.66-3.15,1.49-.84.83-1.28,2.13-.84,3.23.44,1.09,1.63,1.72,2.8,1.9Z"/>
    <g>
      <path class="cls-2" d="m3.7,49.13c.61,3.39,1.72,6.8,3.41,10,1.66,3.22,3.89,6.21,6.49,8.91,5.23,5.39,12.03,9.51,19.47,12.15,7.45,2.67,15.1,3.91,22.46,4.56,7.37.63,14.58.52,21.32-.54,6.75-1.02,13.01-3.02,18.43-5.75,5.43-2.72,10.03-6.16,13.59-9.89,3.58-3.73,6.07-7.75,7.77-11.46.63-1.42,1.16-2.79,1.58-4.11.17-.33.33-.66.48-1,.48-.93.78-1.93,1.16-2.91l.44-1.51c.16-.5.29-1.02.38-1.54.5-2.06.67-4.21.75-6.36.02-2.16-.17-4.33-.55-6.49-.44-2.15-1.01-4.3-1.88-6.36-1.68-4.12-4.34-7.97-7.76-11.01-3.39-3.08-7.35-5.37-11.41-7.08-4.07-1.72-8.27-2.86-12.42-3.71-8.32-1.63-16.46-2.35-24.25-2.27-6.84.08-13.39.89-19.39,2.4,0,0-.01,0-.02,0-1.5-.05-3.75.16-6.51.92-1.39.37-2.9.86-4.55,1.42-1.65.56-3.44,1.16-5.34,1.89-3.79,1.42-8.11,3.44-12.02,6.86-3.91,3.37-7.5,7.97-9.77,13.67-.75,1.88-1.33,3.88-1.75,5.95-1.1,1.84-1.95,3.35-2.57,4.47-.83,1.51-1.26,2.3-1.26,2.3,0,0,.46-.78,1.33-2.26.59-.99,1.38-2.31,2.38-3.89-.73,4.02-.78,8.32,0,12.64ZM63.2,4.27c7.65,0,15.73.79,23.89,2.44,4.07.85,8.15,1.99,12.08,3.66,3.92,1.65,7.69,3.85,10.9,6.77,6.51,5.76,9.78,14.36,9.67,22.51-.06,2.04-.21,4.07-.67,6.02-.09.49-.2.98-.35,1.46l-.41,1.44c-.36.92-.63,1.88-1.08,2.75-1.58,3.6-3.93,6.75-6.58,9.44-5.36,5.39-11.86,8.96-18.15,11.5-6.32,2.54-12.55,4.02-18.29,4.79-11.55,1.47-21.05.13-27.36-1.37-.79-.19-1.54-.38-2.24-.55-.7-.18-1.34-.39-1.94-.57-1.2-.35-2.22-.66-3.03-.97-1.62-.58-2.47-.88-2.47-.88,0,0,.84.33,2.44.95.79.33,1.81.66,3,1.05.6.19,1.24.42,1.93.62.7.19,1.44.39,2.23.61,6.29,1.67,15.83,3.26,27.54,1.99,5.83-.68,12.17-2.06,18.64-4.54,6.43-2.49,13.14-6.04,18.77-11.57,1.78-1.77,3.44-3.75,4.85-5.94-.14.32-.29.64-.44.97-1.77,3.61-4.31,7.5-7.9,11.07-3.57,3.58-8.13,6.85-13.49,9.42-5.35,2.58-11.5,4.43-18.11,5.35-6.62.95-13.69,1-20.95.32-7.26-.68-14.76-1.94-22-4.53-7.24-2.56-13.79-6.52-18.85-11.66-2.51-2.58-4.66-5.42-6.28-8.47-1.64-3.03-2.73-6.28-3.36-9.52-1.04-5.39-.73-10.76.6-15.58,1.72-2.57,3.87-5.57,6.67-8.73,3.05-3.46,6.98-7.01,11.9-10.08,4.9-3.08,10.75-5.7,17.33-7.47,6.57-1.79,13.85-2.71,21.51-2.72ZM15.94,16.92c3.73-3.42,7.9-5.49,11.63-7.01,1.87-.77,3.64-1.42,5.27-2.02,1.63-.61,3.12-1.14,4.48-1.54,2.56-.78,4.66-1.07,6.15-1.11-.71.18-1.42.37-2.12.57-6.66,1.9-12.56,4.67-17.48,7.9-4.94,3.21-8.85,6.91-11.84,10.47-2.47,2.91-4.4,5.68-5.97,8.11.2-.65.42-1.29.66-1.92,2.09-5.53,5.48-10.07,9.22-13.44Z"/>
      <path class="cls-2" d="m36.07,3.75c1.29-.19,2.74-.44,4.37-.62,1.62-.21,3.39-.43,5.31-.59,1.91-.21,3.95-.33,6.1-.48,4.3-.23,9.03-.35,14-.24,4.96.13,9.68.48,13.97.92,2.14.26,4.18.47,6.07.77,1.9.25,3.66.56,5.27.85,1.61.26,3.06.58,4.33.83,1.28.24,2.37.49,3.26.7,1.79.4,2.78.63,2.78.63,0,0-.96-.32-2.7-.9-.87-.29-1.94-.64-3.2-.98-1.26-.35-2.68-.79-4.28-1.16-1.6-.4-3.35-.82-5.25-1.18-1.89-.41-3.94-.72-6.09-1.07-4.31-.61-9.09-1.07-14.12-1.21-5.03-.11-9.82.12-14.16.53-2.16.24-4.22.45-6.13.77-1.92.27-3.69.6-5.3.92-1.62.29-3.06.66-4.33.95-1.27.28-2.36.58-3.24.83-1.77.49-2.74.77-2.74.77,0,0,1-.18,2.8-.49.9-.17,2-.36,3.29-.54Z"/>
      <path class="cls-2" d="m83.08,90.75c-.53,1.21-.84,2.68-.71,4.26.12,1.56.75,3.35,2.23,4.6,1.49,1.26,3.44,1.64,5.26,1.88.94.11,1.94.16,2.98,0,1.03-.15,2.11-.58,2.98-1.27,1.75-1.35,2.7-3.47,2.8-5.46.12-2.01-.45-3.89-1.34-5.43-.89-1.55-2.15-2.78-3.55-3.55-1.41-.76-2.88-1.02-4.18-1.08-2.61-.05-4.59.47-5.97.72-1.38.27-2.14.43-2.14.43,0,0,.78-.03,2.18-.15,1.13-.07,2.68-.27,4.51-.2-.31.15-.71.35-1.16.65-1.18.77-2.84,2.18-3.9,4.61Zm5.27-5.25c.37.02.75.04,1.15.09,1.2.16,2.48.51,3.63,1.24,1.15.73,2.15,1.85,2.85,3.21.69,1.36,1.1,2.98.95,4.58-.13,1.59-.89,3.17-2.19,4.17-1.26,1.02-2.98,1.16-4.69.99-1.73-.17-3.37-.47-4.49-1.35-1.14-.85-1.76-2.23-1.96-3.57-.21-1.35-.06-2.67.33-3.8.76-2.3,2.18-3.83,3.23-4.7.48-.4.9-.67,1.2-.86Z"/>
      <path class="cls-2" d="m101.3,97.77c-.73.9-1.35,2.03-1.8,3.31-.22.64-.43,1.3-.54,2.07-.11.76-.05,1.7.42,2.51.46.82,1.22,1.4,2.02,1.77.81.37,1.67.56,2.55.62,1.74.09,3.5-.21,5.19-.88,1.65-.67,3.27-1.7,4.25-3.31.97-1.6,1.07-3.72-.06-5.22-.55-.72-1.24-1.17-1.89-1.51-.66-.33-1.32-.62-1.98-.8-1.32-.39-2.6-.49-3.73-.46-.49.02-.93.06-1.37.12.56-.35,1.1-.58,1.57-.72.58-.18,1.06-.22,1.38-.24.32-.01.5,0,.5,0,0,0-.17-.04-.49-.07-.33-.04-.82-.06-1.44.04-.81.11-1.88.48-2.93,1.23-.96.21-1.78.48-2.4.71-1.16.44-1.77.77-1.77.77,0,0,.65-.22,1.85-.5.42-.09.92-.19,1.47-.27-.26.25-.52.52-.77.83Zm1.98-.97c.74-.06,1.54-.09,2.41-.03,1.07.07,2.22.28,3.36.72,1.1.44,2.39,1.1,3.04,2.04.62.91.54,2.36-.18,3.44-.72,1.12-2.01,1.97-3.46,2.55-1.44.58-2.99.86-4.43.83-1.4-.05-2.79-.53-3.36-1.44-.61-.88-.32-2.25-.01-3.45.32-1.2.78-2.27,1.36-3.15.38-.59.81-1.08,1.26-1.49Z"/>
      <path class="cls-2" d="m116,105.68c-.77.49-1.17.8-1.17.8,0,0,.45-.22,1.29-.55.84-.32,2.08-.76,3.62-.94.77-.08,1.62-.09,2.47.08.42.09.86.21,1.26.4.39.17.89.44,1.06.65.09.11.07.12.07.22,0,.1-.05.28-.14.49-.21.43-.43.87-.76,1.25-.63.78-1.5,1.42-2.52,1.86-1.01.45-2.11.69-3.17.77-1.05.06-2.15,0-2.9-.33-.75-.32-1.11-.98-1.13-1.8-.03-.8.24-1.6.59-2.26.72-1.33,1.81-2.11,2.59-2.49.4-.2.73-.31.96-.38.23-.06.35-.09.35-.09,0,0-.13,0-.37.02-.24.02-.6.06-1.04.19-.88.25-2.2.86-3.25,2.27-.51.7-.97,1.59-1.07,2.7-.04.55,0,1.16.29,1.76.27.6.8,1.12,1.38,1.43,1.18.62,2.41.7,3.67.69,1.26-.04,2.57-.29,3.81-.85,1.24-.54,2.37-1.38,3.16-2.45.41-.52.69-1.13.92-1.72.11-.31.21-.68.19-1.13,0-.45-.27-.97-.57-1.22-.3-.28-.59-.43-.85-.55-.27-.12-.53-.25-.8-.32-.53-.19-1.07-.27-1.59-.33-1.04-.09-1.98.05-2.8.25-1.64.43-2.81,1.1-3.59,1.57Z"/>
    </g>
  </g>
  <g>
    <path d="m35.7,31.8c-.15-.28-.37-.49-.65-.64-.28-.15-.62-.22-1-.22-.66,0-1.2.22-1.6.65-.4.44-.6,1.02-.6,1.75,0,.78.21,1.38.63,1.82.42.44,1,.65,1.73.65.5,0,.93-.13,1.28-.38.35-.26.6-.62.76-1.1h-2.6v-1.51h4.46v1.91c-.15.51-.41.99-.77,1.43-.36.44-.83.8-1.39,1.07s-1.19.41-1.9.41c-.83,0-1.57-.18-2.23-.55-.65-.36-1.16-.87-1.52-1.52s-.55-1.39-.55-2.22.18-1.57.55-2.23c.36-.65.87-1.16,1.52-1.52.65-.36,1.39-.55,2.22-.55,1.01,0,1.86.24,2.55.73.69.49,1.15,1.16,1.37,2.03h-2.27Z"/>
    <path d="m41.3,30.78v1.7h2.75v1.58h-2.75v1.85h3.11v1.64h-5.16v-8.42h5.16v1.64h-3.11Z"/>
    <path d="m51.8,29.14v1.64h-2.23v6.78h-2.05v-6.78h-2.23v-1.64h6.52Z"/>
    <path d="m61.65,33.97c.3.38.44.81.44,1.3,0,.7-.25,1.26-.74,1.67-.49.41-1.18.62-2.06.62h-3.92v-8.42h3.79c.86,0,1.53.2,2.01.59.48.39.73.92.73,1.6,0,.5-.13.91-.39,1.24s-.61.56-1.04.68c.49.1.88.35,1.18.73Zm-4.22-1.42h1.34c.34,0,.59-.07.77-.22.18-.15.27-.37.27-.65s-.09-.51-.27-.66c-.18-.15-.44-.23-.77-.23h-1.34v1.76Zm2.31,3.13c.19-.16.28-.38.28-.68s-.1-.53-.29-.7-.47-.25-.81-.25h-1.49v1.86h1.51c.34,0,.61-.08.8-.23Z"/>
    <path d="m68.53,36.07h-3.14l-.5,1.49h-2.15l3.05-8.42h2.38l3.05,8.42h-2.17l-.5-1.49Zm-.53-1.58l-1.04-3.08-1.03,3.08h2.08Z"/>
    <path d="m72.32,31.11c.36-.65.86-1.16,1.51-1.52.64-.36,1.37-.55,2.19-.55,1,0,1.86.26,2.57.79.71.53,1.19,1.25,1.43,2.16h-2.26c-.17-.35-.41-.62-.71-.8-.31-.18-.66-.28-1.05-.28-.63,0-1.14.22-1.54.66-.39.44-.59,1.03-.59,1.76s.2,1.32.59,1.76c.39.44.9.66,1.54.66.39,0,.74-.09,1.05-.28.31-.18.55-.45.71-.8h2.26c-.24.91-.72,1.63-1.43,2.15-.71.52-1.57.79-2.57.79-.82,0-1.55-.18-2.19-.55-.64-.36-1.15-.87-1.51-1.52-.36-.65-.54-1.39-.54-2.22s.18-1.57.54-2.23Z"/>
    <path d="m86.16,37.56l-2.83-3.72v3.72h-2.05v-8.42h2.05v3.7l2.81-3.7h2.41l-3.26,4.13,3.38,4.3h-2.51Z"/>
    <path d="m37.4,43.54v8.42h-2.05v-3.47h-3.19v3.47h-2.05v-8.42h2.05v3.3h3.19v-3.3h2.05Z"/>
    <path d="m40.93,45.18v1.7h2.75v1.58h-2.75v1.85h3.11v1.64h-5.16v-8.42h5.16v1.64h-3.11Z"/>
    <path d="m49.67,51.96l-1.75-3.18h-.49v3.18h-2.05v-8.42h3.44c.66,0,1.23.12,1.7.35.47.23.82.55,1.05.95.23.4.35.85.35,1.35,0,.56-.16,1.06-.47,1.5-.32.44-.78.75-1.4.94l1.94,3.34h-2.32Zm-2.24-4.63h1.27c.38,0,.66-.09.85-.28.19-.18.28-.44.28-.78s-.09-.57-.28-.76-.47-.28-.85-.28h-1.27v2.09Z"/>
    <path d="m55.25,45.18v1.7h2.75v1.58h-2.75v1.85h3.11v1.64h-5.16v-8.42h5.16v1.64h-3.11Z"/>
    <path d="m59.76,51.74c-.23-.21-.34-.47-.34-.79s.11-.59.34-.8.52-.32.88-.32.64.11.87.32.34.48.34.8-.11.57-.34.79c-.23.21-.52.32-.87.32s-.65-.11-.88-.32Z"/>
    <path d="m63.15,51.74c-.23-.21-.34-.47-.34-.79s.11-.59.34-.8.52-.32.88-.32.64.11.87.32.34.48.34.8-.11.57-.34.79c-.23.21-.52.32-.87.32s-.65-.11-.88-.32Z"/>
    <path d="m66.53,51.74c-.23-.21-.34-.47-.34-.79s.11-.59.34-.8.52-.32.88-.32.64.11.87.32.34.48.34.8-.11.57-.34.79c-.23.21-.52.32-.87.32s-.65-.11-.88-.32Z"/>
    <path d="m69.92,51.74c-.23-.21-.34-.47-.34-.79s.11-.59.34-.8c.23-.22.52-.32.88-.32s.64.11.87.32c.23.22.34.48.34.8s-.11.57-.34.79c-.23.21-.52.32-.87.32s-.65-.11-.88-.32Z"/>
    <path d="m73.3,51.74c-.23-.21-.34-.47-.34-.79s.11-.59.34-.8c.23-.22.52-.32.88-.32s.64.11.87.32c.23.22.34.48.34.8s-.11.57-.34.79c-.23.21-.52.32-.87.32s-.65-.11-.88-.32Z"/>
    <path d="m76.68,51.74c-.23-.21-.34-.47-.34-.79s.11-.59.34-.8.52-.32.88-.32.64.11.87.32.34.48.34.8-.11.57-.34.79c-.23.21-.52.32-.87.32s-.65-.11-.88-.32Z"/>
    <path d="m80.07,51.74c-.23-.21-.34-.47-.34-.79s.11-.59.34-.8.52-.32.88-.32.64.11.87.32.34.48.34.8-.11.57-.34.79c-.23.21-.52.32-.87.32s-.65-.11-.88-.32Z"/>
  </g>
</svg>