<?xml version="1.0" encoding="UTF-8"?>
<svg id="OBJECTS" xmlns="http://www.w3.org/2000/svg" viewBox="0 0 141.82 108.36">
  <defs>
    <style>
      .cls-1 {
        fill: #fff;
      }

      .cls-2 {
        fill: #3a261b;
      }

      .cls-3 {
        fill: #d56538;
      }
    </style>
  </defs>
  <g>
    <path class="cls-1" d="m91.91,5.03c-5.67-.47-11.46.98-16.38,3.85C67.49.98,54.57-1.47,44.2,2.95c-5.86,2.5-11.79,6.19-15.43,11.13-1.44,1.96-3.69,5.16-4.04,7.48-3.01.98-14.52,6.03-18.25,15.46-2.93,7.42-2.66,16.28,2.15,22.65,4.8,6.37,13.33,9.71,21.18,8.3,6.27,11.37,18.1,19.49,30.97,21.24,6.38.87,13.11.19,18.81-2.82,5.7-3,10.23-8.52,11.2-14.89,6.14,7.8,17.88,10.58,26.86,6.35,8.99-4.23,14.33-15.04,12.23-24.74,4.99-1.95,8.97-6.29,10.49-11.42,1.52-5.13.53-10.95-2.59-15.29-2.69-3.75-6.74-6.29-10.87-8.35-2.21-1.11-6.91-1.46-9.83-.34-2.03-3.49-11.59-11.53-25.16-12.67Z"/>
    <path class="cls-1" d="m36.41,90c-.05-1.83-.57-3.68-1.64-5.16-1.08-1.48-2.74-2.57-4.55-2.79-1.58,1.45-2.69,3.39-3.15,5.49-.49,2.2-.18,4.69,1.28,6.4s4.24,2.36,6.07,1.05c1.52-1.08,2.05-3.13,2-4.99Z"/>
    <path class="cls-1" d="m24.01,102.21c-.2-.99-.56-1.96-1.14-2.79s-1.39-1.51-2.35-1.85c-.48-.17-.99-.24-1.49-.16-.29.05-.58.16-.83.32l.16-.14c-1.86.77-3.32,2.44-3.84,4.38-.29,1.09-.28,2.32.36,3.25.39.57.98.97,1.58,1.3,1.28.69,2.75,1.11,4.19.89,1.44-.22,2.81-1.15,3.29-2.52.3-.85.24-1.78.06-2.66Z"/>
    <g>
      <path class="cls-2" d="m3.82,56.55c1.29,1.6,2.78,2.76,4.16,3.46,1.38.7,2.62.95,3.46,1,.4.04.7.02.92.01.71.61,1.44,1.19,2.18,1.7,4.42,3.05,9.14,4.42,13.07,4.94,1.19.15,2.31.23,3.36.26.3,1.18.69,2.43,1.22,3.75,1.52,3.74,4.11,7.99,8.19,11.58,4.04,3.61,9.6,6.32,15.77,7.36,1.7.28,3.39.41,5.06.44-.84.07-1.7.13-2.59.15-1.8.03-3.52-.06-5.08-.21-1.56-.18-2.97-.4-4.14-.67-.59-.11-1.11-.27-1.58-.38-.47-.11-.87-.23-1.19-.34-.66-.2-1.02-.31-1.02-.31,0,0,.32.2.91.56.29.18.66.4,1.1.61.44.22.94.49,1.51.71,1.14.5,2.56.95,4.17,1.31,1.62.33,3.44.54,5.36.51,1.92-.05,3.73-.34,5.33-.74,1.6-.43,2.99-.95,4.11-1.49.36-.16.68-.33.98-.5,1.53-.34,3-.77,4.39-1.3,5.07-1.89,9.08-4.75,12.03-7.49,2.64-2.51,4.47-4.9,5.67-6.74.61.51,1.28,1.02,2.02,1.51,2.83,1.88,6.74,3.38,11.23,3.86,2.24.25,4.62.26,7.06.04,2.43-.23,4.95-.61,7.47-1.47,5.09-1.71,8.94-5.57,10.96-9.65,2.09-4.12,2.3-8.45,1.65-11.77-.16-.84-.36-1.62-.6-2.34.24-.14.49-.29.74-.44.32,1.85.62,3.99.65,6.27.04,3.34-.72,6.34-1.73,8.33-.5,1-1.01,1.76-1.41,2.26-.4.5-.64.77-.64.77,0,0,.31-.18.84-.57.53-.39,1.24-1.04,1.97-1.99,1.48-1.87,2.8-5.12,2.76-8.82-.04-2.69-.64-5.07-1.3-6.99,2.51-1.71,5.19-4.2,7.03-7.74,1.01-1.93,1.73-4.19,1.9-6.59.17-2.4-.2-4.9-1-7.29-1.64-4.79-4.58-8.65-7.67-11.62-1.57-1.48-3.28-2.69-5.04-3.51-1.75-.83-3.52-1.26-5.13-1.47-2.76-.33-5.06.05-6.72.54-1.18-2.07-2.81-4.26-4.94-6.3-2.69-2.58-6.26-4.86-10.42-6.16-4.18-1.24-8.41-1.33-12.09-.69-3.69.64-6.83,1.93-9.24,3.36-.68.4-1.31.81-1.88,1.21-2.83-2.06-6.38-4.24-10.73-5.73-4.61-1.6-10.15-2.27-15.76-1.32-5.61.9-10.66,3.26-14.53,6.26-3.88,3.02-6.6,6.57-8.39,9.77-.47.84-.87,1.66-1.23,2.44-.47.07-1.12.18-1.93.33.37-.84.78-1.7,1.25-2.56.88-1.55,1.86-2.95,2.82-4.17.99-1.2,1.97-2.23,2.87-3.01.43-.42.87-.74,1.24-1.05.37-.31.7-.55.98-.74.56-.4.86-.62.86-.62,0,0-.36.13-1,.37-.33.12-.72.28-1.15.51-.44.23-.95.46-1.47.81-1.07.64-2.26,1.55-3.45,2.72-1.16,1.19-2.32,2.63-3.27,4.31-.7,1.28-1.23,2.58-1.62,3.84-2.03.46-4.64,1.18-7.54,2.59-1.78.89-3.7,2.03-5.45,3.64-.9.78-1.71,1.72-2.51,2.72-.74,1.03-1.48,2.13-2.06,3.34-2.4,4.8-3.21,11.09-1.33,17.08,1.53,4.91,4.55,8.94,7.99,11.91-.2-.04-.44-.08-.75-.18-.79-.22-1.89-.66-3.05-1.49-1.16-.83-2.36-2.05-3.41-3.59-1.04-1.55-1.92-3.42-2.52-5.51-1.25-4.16-1.16-8.22-.66-11.08.25-1.44.58-2.58.82-3.37.27-.78.42-1.22.42-1.22,0,0-.25.38-.68,1.11-.4.74-.96,1.82-1.44,3.27-.96,2.84-1.55,7.25-.19,11.8.65,2.26,1.73,4.3,3.02,5.9Zm2.14-8.08c-1.73-5.51-1.1-11.35.98-15.89,2.04-4.64,5.72-7.7,9.07-9.57,2.63-1.46,5.06-2.34,7.01-2.94-.07.26-.15.52-.21.77-.36,1.63-.52,3.12-.5,4.37-.03.62.05,1.19.08,1.68.03.49.1.91.17,1.25.13.67.21,1.05.21,1.05,0,0,.03-.38.07-1.06.01-.34.04-.75.12-1.23.07-.48.11-1.02.24-1.6.2-1.18.56-2.55,1.06-4.02.21-.57.44-1.16.7-1.76.84-.23,1.52-.4,2.01-.52-.98,2.16-1.56,4.06-1.91,5.49-.23.99-.39,1.76-.46,2.29-.08.53-.13.8-.13.8,0,0,.07-.27.2-.79.12-.52.35-1.27.65-2.23.63-1.91,1.75-4.63,3.68-7.64,1.93-3,4.73-6.27,8.53-9.02,3.78-2.72,8.59-4.85,13.91-5.7,5.31-.9,10.53-.39,15,.99,4.08,1.24,7.54,3.09,10.39,4.89-1.06.8-1.9,1.56-2.52,2.2-.57.53-.93,1.02-1.21,1.31-.27.31-.41.47-.41.47,0,0,.16-.14.46-.41.31-.26.72-.69,1.34-1.15.73-.6,1.7-1.31,2.91-2.04.09.06.19.12.28.18,3,1.98,5.26,3.84,6.81,5.15.77.66,1.36,1.17,1.76,1.53.4.35.61.54.61.54,0,0-.19-.21-.55-.6-.36-.39-.9-.96-1.62-1.68-1.42-1.42-3.53-3.45-6.42-5.63.52-.29,1.08-.59,1.68-.88,2.43-1.19,5.52-2.21,9.04-2.65,3.51-.45,7.46-.25,11.34.91,3.87,1.21,7.26,3.23,9.93,5.56,2.03,1.77,3.67,3.67,4.94,5.51-.74.27-1.31.53-1.69.73-.42.22-.63.33-.63.33,0,0,.23-.09.66-.26.41-.16,1.02-.37,1.82-.57.34.5.66,1,.94,1.49,1.37,2.34,2.18,4.41,2.62,5.88.26.72.35,1.31.47,1.7.1.39.16.6.16.6,0,0-.03-.21-.08-.61-.07-.4-.1-1.01-.27-1.76-.28-1.52-.89-3.71-2.1-6.23-.2-.43-.43-.86-.67-1.3,1.65-.31,3.86-.47,6.4.02,1.51.3,3.14.81,4.72,1.67,1.58.84,3.11,2.05,4.53,3.5,2.82,2.93,5.52,6.7,7.03,11.11.75,2.2,1.09,4.46.99,6.62-.1,2.16-.68,4.2-1.54,6.02-1.51,3.22-3.79,5.67-6.02,7.47-.13-.35-.26-.69-.39-.99-.9-2.14-1.59-3.4-1.59-3.4,0,0,.28,1.41.73,3.66.09.46.19.95.28,1.47-.28.21-.57.41-.84.59-.66-1.8-1.48-3.22-2.19-4.22-.53-.77-1.01-1.33-1.34-1.69-.33-.36-.51-.55-.51-.55,0,0,.15.21.45.6.29.39.71.98,1.16,1.79.63,1.08,1.33,2.59,1.84,4.46-1.94,1.26-3.69,2.09-4.98,2.67-1.62.72-2.55,1.05-2.55,1.05,0,0,.96-.22,2.65-.79,1.31-.44,3.07-1.1,5.07-2.17.15.67.29,1.37.38,2.11.4,3.22-.03,7.21-2.1,10.93-2.03,3.69-5.59,7.11-10.21,8.65-2.3.79-4.72,1.2-7.05,1.46-2.33.25-4.6.31-6.75.16-4.3-.29-8.06-1.5-10.9-3.12-.77-.43-1.46-.89-2.1-1.35.58-.95,1.02-1.7,1.28-2.22.28-.52.42-.79.42-.79,0,0-.17.26-.49.75-.3.5-.79,1.2-1.44,2.09-.23-.17-.45-.34-.65-.51,1.01-1.35,1.8-2.65,2.38-3.73.96-1.79,1.38-2.98,1.38-2.98,0,0-.81.95-2.12,2.47-.78.9-1.76,2-2.85,3.18-.71-.67-1.29-1.31-1.75-1.88-.57-.73-.98-1.32-1.24-1.74-.26-.42-.39-.64-.39-.64,0,0,.11.23.32.68.22.44.57,1.08,1.08,1.87.42.62.96,1.33,1.63,2.08-.64.69-1.3,1.4-2.01,2.14-2.07,2.16-4,4.09-5.44,5.46-1.46,1.37-2.37,2.23-2.37,2.23,0,0,1.16-.48,2.91-1.52,1.74-1.03,4.05-2.69,6.2-4.94.69-.72,1.31-1.46,1.87-2.19.2.19.41.37.62.56-1.32,1.74-3.29,3.98-6.02,6.29-3.03,2.52-7.04,5.09-11.94,6.74-4.88,1.68-10.66,2.26-16.53,1.3-5.85-.99-11.15-3.44-15.09-6.74-3.98-3.29-6.67-7.24-8.35-10.79-.54-1.18-.98-2.31-1.33-3.38,2.13.02,3.93-.17,5.3-.37,1.09-.16,1.93-.33,2.5-.46.56-.13.86-.2.86-.2,0,0-.3.04-.88.12-.57.09-1.42.18-2.51.26-1.43.1-3.3.15-5.49-.02-.59-1.9-.91-3.58-1.07-4.9-.12-1.1-.2-1.97-.2-2.56-.02-.59-.04-.9-.04-.9,0,0-.01.31-.04.9-.05.59-.04,1.46,0,2.58.06,1.29.25,2.94.69,4.82-.96-.09-1.98-.23-3.04-.43-3.8-.72-8.26-2.26-12.33-5.28-4.04-3-7.74-7.49-9.47-13.03Z"/>
      <path class="cls-2" d="m100.23,1.97c1.72.66,3.93,1.83,6.23,3.37,2.3,1.54,4.32,3.1,5.83,4.22,1.5,1.13,2.46,1.81,2.46,1.81,0,0-.64-.99-1.84-2.46-1.2-1.46-3-3.42-5.45-5.07-2.46-1.65-5.08-2.5-6.99-2.74-.96-.13-1.74-.15-2.27-.13-.53.02-.83.06-.83.06,0,0,.28.08.79.22.51.14,1.22.38,2.08.72Z"/>
      <path class="cls-2" d="m136.43,35.45c.41,2.19.71,4.2.87,5.7.15,1.51.24,2.45.24,2.45,0,0,.08-.23.21-.64.14-.41.3-1.02.44-1.78.29-1.52.44-3.71,0-6.06-.44-2.35-1.38-4.33-2.2-5.65-.41-.66-.78-1.17-1.06-1.5-.28-.33-.43-.52-.43-.52,0,0,.26.92.66,2.38.39,1.45.85,3.43,1.26,5.62Z"/>
      <path class="cls-2" d="m35.13,82.76c-.11-.06-.24-.13-.37-.21-.81-.73-1.7-1.31-2.59-1.73-1.82-.86-3.65-1.09-5.11-1.01-1.48.07-2.62.41-3.37.71-.75.3-1.13.52-1.13.52,0,0,.43-.12,1.2-.25.77-.13,1.91-.23,3.27-.08.77.08,1.6.27,2.46.56-.45.07-.91.18-1.37.37-1.05.43-2.05,1.19-2.82,2.21-.77,1.02-1.3,2.35-1.39,3.76-.1,1.4.2,2.86.84,4.18,1.27,2.69,3.87,4.39,6.34,4.81.36.06.73.09,1.08.1-.34.18-.67.33-.95.42-.37.13-.67.2-.87.24-.21.04-.31.06-.31.06,0,0,.11,0,.32.01.21.01.52,0,.93-.05.63-.07,1.51-.29,2.45-.8.31-.06.61-.13.9-.22,1.08-.36,1.95-.95,2.61-1.6,1.34-1.32,1.8-2.81,1.91-3.78.05-.5.03-.88,0-1.14-.04-.26-.05-.39-.05-.39,0,0,0,.13-.02.39-.02.25-.07.63-.2,1.08-.26.9-.92,2.18-2.23,3.16-.09.07-.2.14-.29.21.51-.7.93-1.54,1.19-2.49.56-1.97.41-4.37-.68-6.5-.41-.81-.93-1.52-1.51-2.15.66.26,1.04.41,1.04.41,0,0-.44-.31-1.28-.81Zm.96,8.71c-.27,1.56-1.05,2.83-1.93,3.75-.86.16-1.79.15-2.75-.09-2.01-.5-4.01-1.95-5.03-4.1-1.06-2.14-.96-4.6.18-6.29,1.1-1.76,2.95-2.63,4.57-2.58.12,0,.23.02.36.03,1.49.88,2.93,2.22,3.81,3.95.88,1.73,1.11,3.68.8,5.34Z"/>
      <path class="cls-2" d="m15.35,98.63c-.62.66-1.16,1.51-1.4,2.54-.24,1.02-.15,2.25.44,3.25.57,1.01,1.46,1.71,2.37,2.14.88.43,1.81.61,2.68.64-.2.1-.4.18-.59.25-.81.31-1.55.38-2.06.38-.26.01-.46-.02-.59-.03-.14-.01-.21-.02-.21-.02,0,0,.07.03.19.09.13.06.31.16.57.23.51.17,1.31.34,2.31.22.99-.11,2.19-.51,3.27-1.4.19-.15.36-.32.54-.5.38-.18.73-.36,1.05-.55,1.09-.65,1.86-1.29,2.39-1.73.52-.45.81-.7.81-.7,0,0-.34.17-.96.47-.55.26-1.32.64-2.27,1.01.29-.61.49-1.28.54-1.99.14-1.64-.37-3.17-1.18-4.3-.59-.83-1.31-1.41-2-1.82.45-.13.85-.24,1.17-.32.66-.18,1.03-.27,1.03-.27,0,0-.38,0-1.07,0-.53.01-1.24.02-2.1.14-.83-.32-1.55-.42-2.04-.45-.54-.02-.83.02-.83.02,0,0,.29.07.77.26.25.1.55.23.88.41-.52.13-1.07.29-1.64.56-.71.33-1.43.82-2.05,1.48Zm6.59.81c.5.95.78,2.14.67,3.34-.07,1.12-.54,2.07-1.18,2.83-.59.1-1.2.14-1.82.08-1.39-.16-2.96-.89-3.66-2.15-.73-1.24-.32-2.82.55-3.93.85-1.15,2.07-1.81,3.16-2.25.12-.05.24-.09.36-.13.7.52,1.42,1.26,1.91,2.22Z"/>
    </g>
  </g>
  <g>
    <path d="m45.93,33.33h-3.14l-.5,1.49h-2.15l3.05-8.42h2.38l3.05,8.42h-2.17l-.5-1.49Zm-.53-1.58l-1.04-3.08-1.03,3.08h2.08Z"/>
    <path d="m51.58,25.94v8.88h-2.05v-8.88h2.05Z"/>
    <path d="m55.12,25.94v8.88h-2.05v-8.88h2.05Z"/>
    <path d="m61.21,26.4v8.42h-2.05v-8.42h2.05Z"/>
    <path d="m74.85,28.12l-1.81,6.7h-2.27l-1.06-4.34-1.09,4.34h-2.26l-1.82-6.7h2.05l.95,4.79,1.13-4.79h2.17l1.14,4.76.94-4.76h1.93Z"/>
    <path d="m75.61,29.65c.26-.52.61-.92,1.06-1.2.45-.28.95-.42,1.5-.42.47,0,.89.1,1.24.29s.63.44.82.76v-.95h2.05v6.7h-2.05v-.95c-.2.31-.48.56-.83.76s-.77.29-1.24.29c-.54,0-1.04-.14-1.49-.43-.45-.28-.8-.69-1.06-1.21-.26-.52-.39-1.13-.39-1.82s.13-1.29.39-1.81Zm4.2.61c-.28-.3-.63-.44-1.04-.44s-.75.15-1.04.44c-.28.29-.43.69-.43,1.21s.14.92.43,1.22c.28.3.63.45,1.04.45s.75-.15,1.04-.44c.28-.3.43-.7.43-1.21s-.14-.92-.43-1.21Z"/>
    <path d="m89.74,28.81c.47.51.7,1.21.7,2.09v3.91h-2.04v-3.64c0-.45-.12-.8-.35-1.04-.23-.25-.54-.37-.94-.37s-.7.12-.94.37c-.23.25-.35.6-.35,1.04v3.64h-2.05v-6.7h2.05v.89c.21-.3.49-.53.84-.7.35-.17.75-.26,1.19-.26.78,0,1.41.25,1.88.76Z"/>
    <path d="m95.6,33.08v1.74h-1.04c-.74,0-1.32-.18-1.74-.55s-.62-.96-.62-1.78v-2.66h-.82v-1.7h.82v-1.63h2.05v1.63h1.34v1.7h-1.34v2.69c0,.2.05.34.14.43.1.09.26.13.48.13h.73Z"/>
    <path d="m103.01,31.96h-4.64c.03.42.17.73.4.95s.53.33.87.33c.51,0,.87-.22,1.07-.65h2.18c-.11.44-.31.84-.61,1.19-.29.35-.66.63-1.1.83-.44.2-.93.3-1.48.3-.66,0-1.24-.14-1.75-.42-.51-.28-.91-.68-1.2-1.2s-.43-1.13-.43-1.82.14-1.3.43-1.82c.28-.52.68-.92,1.19-1.2.51-.28,1.1-.42,1.76-.42s1.22.14,1.73.41c.5.27.9.66,1.18,1.16.28.5.43,1.09.43,1.76,0,.19-.01.39-.04.6Zm-2.06-1.14c0-.35-.12-.63-.36-.84-.24-.21-.54-.31-.9-.31s-.63.1-.87.3c-.24.2-.38.48-.44.85h2.57Z"/>
    <path d="m104.11,29.65c.26-.52.61-.92,1.06-1.2.45-.28.95-.42,1.5-.42.44,0,.84.09,1.21.28.36.18.65.43.86.74v-3.11h2.05v8.88h-2.05v-.96c-.19.32-.47.58-.82.77s-.77.29-1.24.29c-.55,0-1.05-.14-1.5-.43-.45-.28-.8-.69-1.06-1.21-.26-.52-.39-1.13-.39-1.82s.13-1.29.39-1.81Zm4.2.61c-.28-.3-.63-.44-1.04-.44s-.75.15-1.04.44c-.28.29-.43.69-.43,1.21s.14.92.43,1.22c.28.3.63.45,1.04.45s.75-.15,1.04-.44c.28-.3.43-.7.43-1.21s-.14-.92-.43-1.21Z"/>
    <path d="m50.3,42.52l-1.81,6.7h-2.27l-1.06-4.34-1.09,4.34h-2.26l-1.82-6.7h2.05l.95,4.79,1.13-4.79h2.17l1.14,4.76.94-4.76h1.93Z"/>
    <path d="m51.06,44.05c.26-.52.61-.92,1.06-1.2.45-.28.95-.42,1.5-.42.47,0,.89.1,1.24.29s.63.44.82.76v-.95h2.05v6.7h-2.05v-.95c-.2.31-.48.56-.83.76s-.77.29-1.24.29c-.54,0-1.04-.14-1.49-.43-.45-.28-.8-.69-1.06-1.21-.26-.52-.39-1.13-.39-1.82s.13-1.29.39-1.81Zm4.2.61c-.28-.3-.63-.44-1.04-.44s-.75.15-1.04.44c-.28.29-.43.69-.43,1.21s.14.92.43,1.22c.28.3.63.45,1.04.45s.75-.15,1.04-.44c.28-.3.43-.7.43-1.21s-.14-.92-.43-1.21Z"/>
    <path d="m60.39,49.02c-.46-.2-.82-.47-1.08-.82-.26-.35-.41-.74-.44-1.17h2.03c.02.23.13.42.32.56.19.14.43.22.71.22.26,0,.45-.05.59-.15.14-.1.21-.23.21-.39,0-.19-.1-.33-.3-.43-.2-.09-.52-.19-.97-.31-.48-.11-.88-.23-1.2-.35s-.6-.32-.83-.59c-.23-.27-.35-.63-.35-1.09,0-.38.11-.73.32-1.05.21-.32.52-.57.94-.75.41-.18.9-.28,1.47-.28.84,0,1.5.21,1.99.62.48.42.76.97.83,1.66h-1.9c-.03-.23-.13-.42-.31-.55-.17-.14-.4-.2-.68-.2-.24,0-.42.05-.55.14s-.19.22-.19.38c0,.19.1.34.31.43.2.1.52.19.95.29.5.13.9.25,1.21.38s.59.32.82.6c.24.28.36.65.37,1.11,0,.39-.11.74-.33,1.05-.22.31-.54.55-.95.73s-.89.26-1.43.26c-.58,0-1.1-.1-1.56-.3Z"/>
    <path d="m69.63,49.02c-.46-.2-.82-.47-1.08-.82-.26-.35-.41-.74-.44-1.17h2.03c.02.23.13.42.32.56.19.14.43.22.71.22.26,0,.45-.05.59-.15.14-.1.21-.23.21-.39,0-.19-.1-.33-.3-.43-.2-.09-.52-.19-.97-.31-.48-.11-.88-.23-1.2-.35s-.6-.32-.83-.59c-.23-.27-.35-.63-.35-1.09,0-.38.11-.73.32-1.05.21-.32.52-.57.94-.75.41-.18.9-.28,1.47-.28.84,0,1.5.21,1.99.62.48.42.76.97.83,1.66h-1.9c-.03-.23-.13-.42-.31-.55-.17-.14-.4-.2-.68-.2-.24,0-.42.05-.55.14s-.19.22-.19.38c0,.19.1.34.31.43.2.1.52.19.95.29.5.13.9.25,1.21.38s.59.32.82.6c.24.28.36.65.37,1.11,0,.39-.11.74-.33,1.05-.22.31-.54.55-.95.73s-.89.26-1.43.26c-.58,0-1.1-.1-1.56-.3Z"/>
    <path d="m76.44,48.9c-.52-.28-.94-.68-1.24-1.2-.3-.52-.45-1.13-.45-1.82s.15-1.29.46-1.82c.3-.52.72-.93,1.25-1.21.53-.28,1.12-.42,1.78-.42s1.25.14,1.78.42c.53.28.94.68,1.25,1.21s.46,1.13.46,1.82-.15,1.29-.46,1.82-.73.93-1.26,1.21c-.53.28-1.13.42-1.78.42s-1.25-.14-1.77-.42Zm2.77-1.79c.28-.29.41-.7.41-1.24s-.13-.95-.4-1.24c-.27-.29-.6-.43-.99-.43s-.73.14-1,.43c-.26.28-.4.7-.4,1.24s.13.95.39,1.24c.26.29.59.43.98.43s.73-.14,1-.43Z"/>
    <path d="m93.34,43.21c.49.5.74,1.2.74,2.1v3.91h-2.04v-3.64c0-.43-.11-.77-.34-1-.23-.24-.54-.35-.94-.35s-.71.12-.94.35c-.23.24-.34.57-.34,1v3.64h-2.04v-3.64c0-.43-.11-.77-.34-1-.23-.24-.54-.35-.94-.35s-.71.12-.94.35c-.23.24-.34.57-.34,1v3.64h-2.05v-6.7h2.05v.84c.21-.28.48-.5.82-.67.34-.16.72-.25,1.14-.25.5,0,.95.11,1.35.32.4.22.71.52.93.92.23-.37.55-.67.95-.9s.84-.35,1.31-.35c.83,0,1.49.25,1.99.76Z"/>
    <path d="m101.79,46.36h-4.64c.03.42.17.73.4.95s.53.33.87.33c.51,0,.87-.22,1.07-.65h2.18c-.11.44-.31.84-.61,1.19-.29.35-.66.63-1.1.83-.44.2-.93.3-1.48.3-.66,0-1.24-.14-1.75-.42-.51-.28-.91-.68-1.2-1.2s-.43-1.13-.43-1.82.14-1.3.43-1.82c.28-.52.68-.92,1.19-1.2.51-.28,1.1-.42,1.76-.42s1.22.14,1.73.41c.5.27.9.66,1.18,1.16.28.5.43,1.09.43,1.76,0,.19-.01.39-.04.6Zm-2.06-1.14c0-.35-.12-.63-.36-.84-.24-.21-.54-.31-.9-.31s-.63.1-.87.3c-.24.2-.38.48-.44.85h2.57Z"/>
    <path class="cls-3" d="m42.87,61.94h3.62v1.68h-5.95v-1.56l3.6-5.18h-3.6v-1.68h5.95v1.56l-3.62,5.18Z"/>
    <path class="cls-3" d="m49.89,55.2v8.42h-2.05v-8.42h2.05Z"/>
    <path class="cls-3" d="m60.92,55.2v8.42h-2.05v-5.05l-1.88,5.05h-1.66l-1.9-5.06v5.06h-2.05v-8.42h2.42l2.36,5.83,2.34-5.83h2.41Z"/>
    <path class="cls-3" d="m67.64,62.13h-3.14l-.5,1.49h-2.15l3.05-8.42h2.38l3.05,8.42h-2.17l-.5-1.49Zm-.53-1.58l-1.04-3.08-1.03,3.08h2.08Z"/>
  </g>
</svg>