<?xml version="1.0" encoding="UTF-8"?>
<svg id="OBJECTS" xmlns="http://www.w3.org/2000/svg" viewBox="0 0 143.28 86.45">
  <defs>
    <style>
      .cls-1 {
        fill: #fff;
      }

      .cls-2 {
        fill: #3a261b;
      }

      .cls-3 {
        fill: #cc3434;
      }
    </style>
  </defs>
  <g>
    <path class="cls-1" d="m134.86,21.41c-4.99-5.84-11.81-9.91-19.01-12.59-7.2-2.68-14.82-4.04-22.42-5.14-10.53-1.52-21.22-2.55-31.81-1.47-10.59,1.08-20.36,3.56-27.3,8.67-7.98,5.88-14.29,14.55-14.61,24.46-.2,6.26,1.66,12.29,4.87,17.64-8.54,5.78-15.11,14.49-18.02,24.4,8.1-5.77,16.74-10.78,25.77-14.96,2.33,2.15,4.88,4.05,7.57,5.66,11.54,6.91,25.22,9.22,38.6,10.51,6.8.66,13.62,1.08,20.45,1.28,6.1.17,12.29.16,18.18-1.42,11.46-3.06,21.08-12.3,24.6-23.63,3.52-11.33.83-24.39-6.89-33.4Z"/>
    <g>
      <path class="cls-2" d="m131.88,20.88c-4.31-3.47-8.98-5.68-13.26-7.43-8.62-3.38-15.8-5.48-20.78-6.86-2.49-.68-4.43-1.17-5.75-1.5-1.32-.32-2.01-.49-2.01-.49,0,0,.69.19,1.99.56,1.31.37,3.23.93,5.69,1.69,4.91,1.54,12.03,3.86,20.51,7.42,4.19,1.83,8.72,4.12,12.82,7.55,4.05,3.4,7.75,8.09,9.1,13.86,1.35,5.75.33,12.27-2.67,17.98-2.99,5.74-7.93,10.61-13.68,14.44-5.79,3.81-12.06,6.59-18.34,8.51-6.29,1.9-12.58,2.98-18.61,3.49-12.07.98-23.12-.03-31.91-2.62-8.83-2.54-15.26-6.58-19.24-9.81-2-1.62-3.43-3.03-4.36-4.02-.93-.99-1.39-1.53-1.39-1.53,0,0,.44.56,1.34,1.58.89,1.02,2.28,2.48,4.23,4.18,3.89,3.37,10.26,7.66,19.16,10.45,8.86,2.84,20.03,4.09,32.29,3.27,6.13-.44,12.54-1.46,18.98-3.36,6.43-1.91,12.87-4.73,18.84-8.66,5.93-3.95,11.09-9.05,14.21-15.15,3.12-6.05,4.15-12.98,2.61-19.12-.76-3.07-2.16-5.86-3.89-8.26-1.73-2.41-3.76-4.46-5.91-6.19Z"/>
      <path class="cls-2" d="m6.54,79.91c5.16-4.75,10.77-8.48,16.19-11.24,1.36-.69,2.7-1.33,4.02-1.89.66-.29,1.32-.57,1.97-.82.64-.24,1.36-.59,1.72-.57.33-.03.78.42,1.29.88.49.45.98.88,1.46,1.3.97.83,1.91,1.62,2.84,2.34,3.68,2.89,6.92,4.87,9.18,6.16,2.27,1.28,3.57,1.9,3.57,1.9,0,0-1.25-.72-3.43-2.14-2.17-1.43-5.26-3.58-8.76-6.61-.88-.75-1.77-1.57-2.69-2.43-.46-.43-.92-.88-1.39-1.34-.24-.23-.45-.46-.76-.72-.29-.25-.73-.52-1.25-.55-.5-.03-.91.1-1.26.22-.33.12-.67.24-1,.36-.67.23-1.35.49-2.03.77-1.37.53-2.76,1.14-4.16,1.81-5.61,2.66-11.44,6.4-16.73,11.28-.1.09-.19.18-.29.27,4.62-10.2,10.59-18.21,15.54-23.57.68.87,1.3,1.57,1.81,2.05.38.4.72.66.92.86.21.19.32.29.32.29,0,0-.1-.1-.31-.3-.19-.21-.52-.48-.88-.9-.48-.51-1.08-1.24-1.73-2.15,2.79-3.03,5.21-5.28,6.93-6.78.85-.77,1.55-1.31,2-1.71.46-.39.7-.59.7-.59,0,0-.25.18-.74.53-.48.36-1.22.86-2.12,1.57-1.79,1.37-4.32,3.45-7.24,6.3-.22-.33-.44-.67-.66-1.05-.12-.2-.23-.4-.35-.61,1.5-1.67,2.87-3.15,4-4.31,1.73-1.77,2.81-2.87,2.81-2.87,0,0-.33.2-.93.55-.6.36-1.45.91-2.47,1.64-1.22.87-2.67,2.03-4.18,3.45-1.65-3.61-2.98-8.7-2.76-14.82.08-1.85.32-3.78.87-5.7.56-1.92,1.43-3.82,2.6-5.63,2.33-3.64,5.73-6.91,9.61-9.91,3.86-3.03,8.32-5.68,13.18-7.88,4.88-2.16,10.19-3.79,15.77-4.7,5.58-.91,11.15-.99,16.51-.77,5.37.25,10.53.74,15.42,1.48,9.78,1.45,18.37,3.96,25.32,6.72,6.95,2.77,12.22,5.84,15.73,8.12.87.58,1.66,1.09,2.32,1.55.65.48,1.2.88,1.65,1.21.89.65,1.36,1,1.36,1,0,0-.45-.36-1.31-1.06-.43-.35-.97-.78-1.6-1.28-.64-.49-1.41-1.03-2.26-1.65-3.43-2.43-8.61-5.71-15.55-8.72-6.92-2.99-15.56-5.75-25.42-7.38-4.93-.83-10.15-1.4-15.58-1.71-5.43-.27-11.12-.22-16.87.72-5.74.93-11.2,2.65-16.19,4.91-4.97,2.3-9.5,5.09-13.41,8.25-3.91,3.13-7.36,6.57-9.71,10.45-1.18,1.93-2.06,3.96-2.59,6-.52,2.04-.72,4.05-.74,5.96-.03,6.34,1.54,11.51,3.37,15.11-.91.87-1.84,1.83-2.75,2.88-2.5,2.91-4.31,5.89-5.45,8.12-.57,1.11-.99,2.03-1.25,2.68-.26.65-.41,1-.41,1,0,0,.93-1.23,2.42-3.21,1.5-1.96,3.62-4.6,6.05-7.43.76-.88,1.51-1.73,2.23-2.54.11.18.21.35.32.52.25.39.49.73.74,1.07-5.96,5.81-13.43,15.21-18.43,27.69l-1.66,4.13,3.12-3.19c.75-.77,2.04-2.09,3.42-3.34Z"/>
    </g>
  </g>
  <g>
    <path class="cls-3" d="m57.63,49.44c-.62-.58-.93-1.29-.93-2.15s.31-1.61.93-2.2c.62-.59,1.43-.89,2.41-.89s1.75.29,2.38.89c.62.59.93,1.32.93,2.2s-.31,1.57-.93,2.15c-.62.58-1.42.87-2.38.87s-1.79-.29-2.41-.87Zm5.36-23.23l-.66,15.7h-4.75l-.66-15.7h6.06Z"/>
    <path class="cls-3" d="m70.48,49.44c-.62-.58-.93-1.29-.93-2.15s.31-1.61.93-2.2c.62-.59,1.43-.89,2.41-.89s1.75.29,2.38.89c.62.59.93,1.32.93,2.2s-.31,1.57-.93,2.15c-.62.58-1.42.87-2.38.87s-1.79-.29-2.41-.87Zm5.36-23.23l-.66,15.7h-4.75l-.66-15.7h6.06Z"/>
    <path class="cls-3" d="m83.33,49.44c-.62-.58-.93-1.29-.93-2.15s.31-1.61.93-2.2c.62-.59,1.43-.89,2.41-.89s1.75.29,2.38.89c.62.59.93,1.32.93,2.2s-.31,1.57-.93,2.15c-.62.58-1.42.87-2.38.87s-1.79-.29-2.41-.87Zm5.36-23.23l-.66,15.7h-4.75l-.66-15.7h6.06Z"/>
  </g>
</svg>