<?xml version="1.0" encoding="UTF-8"?>
<svg id="OBJECTS" xmlns="http://www.w3.org/2000/svg" viewBox="0 0 114.68 113.05">
  <defs>
    <style>
      .cls-1 {
        fill: #fff;
      }

      .cls-2 {
        fill: #3a261b;
      }

      .cls-3 {
        fill: #d56538;
      }
    </style>
  </defs>
  <g>
    <path class="cls-1" d="m17.46,2.07c-4.28-.38-9.02-.58-12.37,2.1-2.36,1.89-3.55,4.94-3.85,7.95-.29,3.01.22,6.03.73,9.01,2.75,16.1,5.5,32.21,8.25,48.31.54,3.14,1.21,6.55,3.6,8.66,2.65,2.34,6.55,2.36,10.08,2.27,19.06-.54,38.12-1.07,57.17-1.61,7.43,9.19,14.87,18.38,22.3,27.57.78-8.58,1.56-17.15,2.34-25.73,4.03-2.1,6.66-6.28,7.86-10.66,1.21-4.38,1.16-8.99,1.03-13.53-.29-9.84-.98-19.66-2.05-29.45-.37-3.33-.92-6.96-3.38-9.24-1.86-1.72-4.47-2.33-6.95-2.87C74.27,8.87,45.94,4.6,17.46,2.07Z"/>
    <g>
      <path class="cls-2" d="m112.48,18.68c-.68-1.76-1.98-3.26-3.61-4.21-.41-.24-.83-.45-1.27-.61-.41-.17-.98-.32-1.37-.39-.91-.17-1.69-.25-2.54-.38l-5-.7-40-5.59L18.68,1.32l-5-.69-2.5-.34c-.83-.11-1.64-.25-2.61-.29-.94,0-1.88.14-2.77.43-.88.31-1.73.74-2.47,1.32C1.83,2.89.74,4.52.27,6.35c-.11.46-.2.91-.23,1.4l-.04.74.04.63c.07.94.2,1.7.29,2.56l.61,5.01,1.23,10.02,5.05,40.07.63,5.01c.12.85.18,1.63.36,2.55.19.89.54,1.74,1.01,2.51.94,1.55,2.4,2.76,4.09,3.4.43.15.86.28,1.3.37.45.08.93.14,1.33.14.89.02,1.7,0,2.55,0l20.2-.15,38.71-.36c.32.5.66,1.02,1.01,1.55.91,1.37,1.91,2.82,2.91,4.27,1.01,1.43,2.03,2.87,3,4.2.97,1.33,1.92,2.55,2.71,3.6.79,1.06,1.5,1.9,1.97,2.51.49.6.77.94.77.94,0,0-.22-.38-.61-1.04-.41-.65-.96-1.61-1.68-2.71-.72-1.1-1.53-2.41-2.45-3.78-.91-1.37-1.91-2.82-2.91-4.26-1.01-1.43-2.03-2.87-3-4.2-.26-.36-.53-.72-.79-1.06h.75s-.76-.01-.76-.01c-.68-.91-1.34-1.76-1.91-2.52-.02-.02-.03-.04-.05-.07l2.07.02,23.7,34.11.89,1.28.1-1.56,1.95-30.6c1.61-.13,3.2-.68,4.47-1.7,1.45-1.13,2.54-2.75,2.97-4.56.24-.92.27-1.88.26-2.69l.02-2.52.04-5.05.12-20.2.11-20.19c0-.86.03-1.64,0-2.56-.04-.94-.23-1.87-.58-2.75Zm-1.19,5.31l-.04,20.19-.03,20.19v5.05s.01,2.52.01,2.52c.02.88-.01,1.62-.19,2.33-.33,1.48-1.21,2.82-2.4,3.77-1.18.97-2.71,1.46-4.23,1.49h0s0,0,0,0l-.42.22-.29.44-1.59,29.69-23.38-32.58-.07-.1h-.12s-2.5.03-2.5.03c-.64-.83-1.21-1.52-1.6-2.03-.49-.6-.77-.94-.77-.94,0,0,.22.38.61,1.04.31.49.7,1.16,1.18,1.93l-19.6.2,19.85.2c.08.13.16.25.25.39.44.67.91,1.42,1.42,2.2l-38.69-.36-20.2-.15c-.83,0-1.71,0-2.5-.02-.44-.01-.79-.07-1.17-.14-.38-.08-.76-.19-1.12-.33-1.46-.57-2.71-1.63-3.5-2.97-.4-.67-.68-1.4-.84-2.16-.14-.73-.21-1.64-.31-2.45l-.58-5.02L3.81,26.51l-1.2-10.03-.6-5.01c-.19-1.7-.5-3.29-.09-4.69.38-1.44,1.25-2.74,2.44-3.65.59-.46,1.27-.79,1.97-1.04.71-.23,1.45-.33,2.2-.33.71.03,1.57.17,2.4.28l2.5.35,5,.7,40,5.62,40.01,5.51,5,.69c.81.12,1.71.22,2.46.36.22.03.39.08.55.13.16.04.33.09.51.17.35.12.68.29,1,.47,1.28.74,2.31,1.92,2.85,3.31.27.69.43,1.42.46,2.17.03.76,0,1.66.01,2.49Z"/>
      <path class="cls-2" d="m30.23.57c-1.09-.1-1.72-.16-1.72-.16,0,0,.61.13,1.69.35,1.08.2,2.61.53,4.47.86,1.85.32,4.01.74,6.33,1.12,2.32.39,4.8.78,7.28,1.16,2.48.37,4.96.73,7.29,1.05,2.33.32,4.51.57,6.38.81,1.87.24,3.43.38,4.52.5,1.09.11,1.72.17,1.72.17,0,0-.61-.13-1.69-.35-1.08-.2-2.61-.53-4.47-.86-1.85-.32-4.01-.73-6.33-1.12-2.32-.39-4.8-.78-7.28-1.16-2.48-.37-4.96-.74-7.29-1.05-2.33-.32-4.51-.57-6.38-.81-1.87-.24-3.43-.38-4.52-.5Z"/>
    </g>
  </g>
  <g>
    <path d="m46.03,33.22c-.22.4-.57.73-1.03.98-.46.25-1.04.37-1.73.37h-1.27v3.02h-2.05v-8.42h3.32c.67,0,1.24.12,1.7.35.46.23.81.55,1.04.96s.35.88.35,1.4c0,.49-.11.93-.34,1.34Zm-2.04-.56c.19-.18.29-.44.29-.78s-.1-.6-.29-.78c-.19-.18-.48-.28-.88-.28h-1.12v2.11h1.12c.39,0,.68-.09.88-.28Z"/>
    <path d="m50.38,31.14c.36-.21.76-.32,1.2-.32v2.17h-.56c-.51,0-.9.11-1.15.33-.26.22-.38.61-.38,1.16v3.11h-2.05v-6.7h2.05v1.12c.24-.37.54-.66.9-.87Z"/>
    <path d="m53.84,37.27c-.52-.28-.94-.68-1.24-1.2-.3-.52-.45-1.13-.45-1.82s.15-1.29.46-1.82c.3-.52.72-.93,1.25-1.21s1.12-.42,1.78-.42,1.25.14,1.78.42c.53.28.94.68,1.25,1.21.3.52.46,1.13.46,1.82s-.15,1.29-.46,1.82c-.31.52-.73.93-1.26,1.21-.53.28-1.13.42-1.78.42s-1.25-.14-1.77-.42Zm2.77-1.79c.28-.29.41-.7.41-1.24s-.13-.95-.4-1.24c-.27-.29-.6-.43-.99-.43s-.73.14-1,.43c-.26.28-.4.7-.4,1.24s.13.95.39,1.24c.26.29.59.43.98.43s.73-.14,1-.43Z"/>
    <path d="m63.94,35.85v1.74h-1.04c-.74,0-1.32-.18-1.74-.55s-.62-.96-.62-1.78v-2.66h-.82v-1.7h.82v-1.63h2.05v1.63h1.34v1.7h-1.34v2.69c0,.2.05.34.14.43.1.09.26.13.48.13h.73Z"/>
    <path d="m71.36,34.74h-4.64c.03.42.17.73.4.95.24.22.53.33.87.33.51,0,.87-.22,1.07-.65h2.18c-.11.44-.31.84-.61,1.19-.29.35-.66.63-1.1.83s-.93.3-1.48.3c-.66,0-1.24-.14-1.75-.42-.51-.28-.91-.68-1.2-1.2-.29-.52-.43-1.13-.43-1.82s.14-1.3.43-1.82c.28-.52.68-.92,1.19-1.2.51-.28,1.1-.42,1.76-.42s1.22.14,1.73.41c.5.27.9.66,1.18,1.16s.43,1.09.43,1.76c0,.19-.01.39-.04.6Zm-2.06-1.14c0-.35-.12-.63-.36-.84-.24-.21-.54-.31-.9-.31s-.63.1-.87.3c-.24.2-.38.48-.44.85h2.57Z"/>
    <path d="m72.49,32.42c.28-.52.68-.92,1.19-1.2.51-.28,1.09-.42,1.75-.42.84,0,1.54.22,2.11.66.56.44.93,1.06,1.11,1.86h-2.18c-.18-.51-.54-.77-1.07-.77-.38,0-.68.15-.9.44-.22.29-.34.71-.34,1.25s.11.96.34,1.25c.22.29.52.44.9.44.53,0,.88-.26,1.07-.77h2.18c-.18.78-.55,1.4-1.12,1.85s-1.27.67-2.1.67c-.66,0-1.24-.14-1.75-.42-.51-.28-.9-.68-1.19-1.2-.28-.52-.43-1.13-.43-1.82s.14-1.3.43-1.82Z"/>
    <path d="m83.47,35.85v1.74h-1.04c-.74,0-1.32-.18-1.74-.55s-.62-.96-.62-1.78v-2.66h-.82v-1.7h.82v-1.63h2.05v1.63h1.34v1.7h-1.34v2.69c0,.2.05.34.14.43.1.09.26.13.48.13h.73Z"/>
    <path class="cls-3" d="m42.13,50.31h3.62v1.68h-5.95v-1.56l3.6-5.18h-3.6v-1.68h5.95v1.56l-3.62,5.18Z"/>
    <path class="cls-3" d="m49.15,43.57v8.42h-2.05v-8.42h2.05Z"/>
    <path class="cls-3" d="m60.17,43.57v8.42h-2.05v-5.05l-1.88,5.05h-1.66l-1.9-5.06v5.06h-2.05v-8.42h2.42l2.36,5.83,2.34-5.83h2.41Z"/>
    <path class="cls-3" d="m66.89,50.5h-3.14l-.5,1.49h-2.15l3.05-8.42h2.38l3.05,8.42h-2.17l-.5-1.49Zm-.53-1.58l-1.04-3.08-1.03,3.08h2.08Z"/>
    <path class="cls-3" d="m71.23,51.77c-.23-.21-.34-.47-.34-.79s.11-.59.34-.8c.23-.22.52-.32.88-.32s.64.11.87.32c.23.22.34.48.34.8s-.11.57-.34.79-.52.32-.87.32-.65-.11-.88-.32Zm1.96-8.5l-.24,5.75h-1.74l-.24-5.75h2.22Z"/>
    <path class="cls-3" d="m75.94,51.77c-.23-.21-.34-.47-.34-.79s.11-.59.34-.8c.23-.22.52-.32.88-.32s.64.11.87.32c.23.22.34.48.34.8s-.11.57-.34.79-.52.32-.87.32-.65-.11-.88-.32Zm1.96-8.5l-.24,5.75h-1.74l-.24-5.75h2.22Z"/>
    <path class="cls-3" d="m80.64,51.77c-.23-.21-.34-.47-.34-.79s.11-.59.34-.8c.23-.22.52-.32.88-.32s.64.11.87.32c.23.22.34.48.34.8s-.11.57-.34.79-.52.32-.87.32-.65-.11-.88-.32Zm1.96-8.5l-.24,5.75h-1.74l-.24-5.75h2.22Z"/>
  </g>
</svg>