<?xml version="1.0" encoding="UTF-8"?>
<svg id="OBJECTS" xmlns="http://www.w3.org/2000/svg" viewBox="0 0 135.33 98.35">
  <defs>
    <style>
      .cls-1 {
        fill: #fff;
      }

      .cls-2 {
        fill: #3a261b;
      }
    </style>
  </defs>
  <g>
    <path class="cls-1" d="m133.74,9.34c-2.52-4.08-7.74-5.22-12.4-5.91C86.55-1.65,50.99-1.08,16.38,5.1c-3.93.7-8.15,1.65-10.75,4.75-2.58,3.09-2.86,7.49-3.01,11.56-.28,7.51-.56,15.02-.84,22.53-.28,7.46-.22,15.87,4.95,21.14,3.33,3.4,8.24,4.76,12.94,4.69,4.7-.07,9.28-1.41,13.8-2.74l-1.82,24.66,12.3-13.31c2.71-2.93,5.49-5.92,8.98-7.79,5.15-2.75,11.23-2.77,17.04-2.72,16.29.13,32.57.26,48.86.39,3.79.03,8.1-.17,10.55-3.14,1.68-2.05,2-4.89,2.25-7.55,1.15-12.4,2.31-24.81,3.46-37.21.35-3.75.63-7.82-1.34-11.01Z"/>
    <g>
      <path class="cls-2" d="m130.17,54.28c-.07,2.54-.1,5.36-.2,8.21-.19,2.64-2.06,5.27-4.77,6.25-.66.26-1.38.39-2.1.44l-.55.02h-.61s-1.23-.02-1.23-.02c-1.64-.01-3.31-.02-4.98-.04-3.35-.01-6.76-.02-10.17-.03-3.41.01-6.81.02-10.17.03-3.35.03-6.65.06-9.85.08-6.39.07-12.35.17-17.46.3-5.11.11-9.37.29-12.35.37-.94.04-1.74.07-2.42.1l1.74-2.03,6.12-.12,6.46-.16c4.31-.15,8.62-.24,12.93-.45-4.31-.21-8.62-.3-12.93-.45l-6.46-.16-6.46-.12h-.32s-.23.25-.23.25l-3.01,3.33c-.06,0-.1,0-.1,0,0,0,.03,0,.09,0l-3.36,3.71-6.34,7.08-6.3,7.11-4.55,5.2c.08-3.73.14-7.45.21-11.18l.16-13.79v-.67s-.64.01-.64.01c-3.54.08-7.07.15-10.61.27-3.54.11-7.07.2-10.61.37,3.54.16,7.07.25,10.61.37,3.32.11,6.63.18,9.95.26l-.05,1.22c-.28-.01-.63-.03-1.05-.05-1.15-.06-2.84-.11-5-.18-2.15-.07-4.77-.15-7.76-.24-1.5-.03-3.09-.06-4.77-.09-.42,0-.85-.02-1.28-.03h-.62s-.66-.06-.66-.06c-.8-.09-1.59-.3-2.36-.65-1.53-.7-2.85-2-3.59-3.63-.37-.81-.61-1.7-.67-2.62-.03-.44-.02-.97-.02-1.49,0-.52,0-1.05.01-1.57.03-4.23.06-8.69.09-13.3.06-4.61-.02-9.38-.04-14.22-.04-4.84-.08-9.76-.12-14.68l-.07-3.69c0-1.21-.12-2.52.09-3.54.42-2.21,1.88-4.24,3.91-5.28,1-.53,2.12-.86,3.26-.92,1.18-.03,2.39-.02,3.57-.03,2.37-.01,4.72-.03,7.02-.04,9.22-.05,17.83-.1,25.21-.15,14.76-.11,24.59-.18,24.59-.18,0,0-9.84-.07-24.59-.18-7.38-.04-15.99-.09-25.21-.15-2.31-.01-4.65-.03-7.02-.04-1.19,0-2.39-.01-3.59-.02-1.26-.01-2.54.25-3.7.81C2.89,4.92,1.1,7.17.51,9.75c-.31,1.39-.2,2.56-.26,3.8l-.07,3.69c-.04,4.92-.08,9.84-.12,14.68-.02,4.84-.1,9.61-.04,14.22.03,4.61.06,9.07.09,13.3,0,.53,0,1.05.01,1.57,0,.52,0,1.03.04,1.61.09,1.13.39,2.22.88,3.2.98,1.96,2.64,3.45,4.49,4.21.92.38,1.9.6,2.86.67l.66.02h.68c.43-.02.86-.03,1.28-.04,1.68-.03,3.28-.06,4.77-.09,3-.09,5.61-.18,7.76-.24,2.15-.07,3.84-.12,5-.18.43-.02.78-.03,1.05-.05l-.49,11.86c-.16,4.59-.35,9.18-.47,13.78l-.07,2.6,1.73-1.95,6.3-7.12,6.26-7.16,6.22-7.19,4.09-4.77c.7.03,1.56.06,2.57.1,2.98.08,7.24.26,12.35.37,5.11.13,11.07.23,17.46.3,3.19.03,6.49.05,9.85.08,3.35.01,6.76.02,10.17.03,3.41-.01,6.81-.02,10.17-.03,1.68-.01,3.34-.02,4.98-.04h1.23c.4-.01.82-.02,1.28-.06.89-.08,1.78-.26,2.59-.6,1.64-.65,3.05-1.77,4.01-3.16.97-1.39,1.52-2.99,1.59-4.61.02-3-.09-5.72-.14-8.29-.11-5.11-.29-9.37-.37-12.35-.12-2.98-.19-4.68-.19-4.68,0,0-.07,1.7-.19,4.68-.08,2.98-.26,7.24-.37,12.35Z"/>
      <path class="cls-2" d="m129.34,5.48c-.9-.99-2.02-1.79-3.28-2.27-1.24-.5-2.68-.66-3.91-.62-9.73.12-19.45.26-26.75.47-3.65.1-6.69.18-8.81.24-2.13.08-3.34.12-3.34.12,0,0,1.22.04,3.34.12,2.13.06,5.17.14,8.81.24,7.29.22,17.02.35,26.75.47,1.2,0,2.21.18,3.22.62.98.44,1.86,1.09,2.56,1.88.7.79,1.23,1.72,1.52,2.72.3,1.01.33,1.96.32,3.16.01,4.56.12,8.81.25,12.46.12,3.65.31,6.69.46,8.81.06,1.06.12,1.9.18,2.47.05.57.08.87.08.87,0,0,.03-.3.08-.87.06-.57.11-1.41.18-2.47.15-2.13.34-5.17.46-8.81.13-3.65.23-7.9.25-12.46.02-1.07.03-2.48-.38-3.72-.38-1.26-1.07-2.43-1.97-3.42Z"/>
      <path class="cls-2" d="m70.32,1.47c-4.51.02-9.02.04-13.25.06-4.23.02-8.18.11-11.56.15-3.38.04-6.2.14-8.18.18-1.97.06-3.1.09-3.1.09,0,0,1.13.03,3.1.09,1.97.04,4.79.13,8.18.18,3.38.04,7.33.13,11.56.15,4.23.02,8.74.04,13.25.06,4.51-.02,9.02-.04,13.25-.06,4.23-.02,8.18-.11,11.56-.15,3.38-.04,6.2-.14,8.18-.18,1.97-.06,3.1-.09,3.1-.09,0,0-1.13-.03-3.1-.1-1.97-.04-4.79-.14-8.18-.18-3.38-.04-7.33-.13-11.56-.15-4.23-.02-8.74-.04-13.25-.06Z"/>
      <path class="cls-2" d="m132.43,21.47s.03.52.09,1.44c.04.92.13,2.22.18,3.79.04,1.57.12,3.4.15,5.36.04,1.96.05,4.06.06,6.15,0,2.09-.02,4.19-.06,6.15-.03,1.96-.11,3.79-.15,5.36-.04,1.57-.14,2.88-.18,3.79-.06.92-.09,1.44-.09,1.44,0,0-.03-.52-.09-1.44-.04-.92-.14-2.22-.18-3.79-.04-1.57-.13-3.4-.15-5.36-.04-1.96-.05-4.06-.06-6.15.01-2.09.02-4.19.06-6.15.03-1.96.11-3.79.15-5.36.04-1.57.14-2.88.18-3.79.06-.92.09-1.44.09-1.44Z"/>
    </g>
  </g>
  <g>
    <path d="m46.71,36.77c-.66-.37-1.18-.88-1.57-1.54-.39-.66-.58-1.4-.58-2.23s.19-1.56.58-2.22c.39-.66.91-1.17,1.57-1.54.66-.37,1.39-.55,2.18-.55s1.52.18,2.18.55c.66.37,1.18.88,1.56,1.54.38.66.57,1.4.57,2.22s-.19,1.57-.58,2.23c-.38.66-.9,1.17-1.56,1.54-.66.37-1.38.55-2.17.55s-1.52-.18-2.18-.55Zm3.79-1.99c.4-.45.61-1.04.61-1.78s-.2-1.34-.61-1.78c-.4-.44-.94-.67-1.61-.67s-1.22.22-1.63.66c-.4.44-.61,1.04-.61,1.79s.2,1.34.61,1.78c.4.44.95.67,1.63.67s1.21-.22,1.61-.67Z"/>
    <path d="m55.62,36.92c-.52-.28-.94-.68-1.24-1.2-.3-.52-.45-1.13-.45-1.82s.15-1.29.46-1.82c.3-.52.72-.93,1.25-1.21.53-.28,1.12-.42,1.78-.42s1.25.14,1.78.42c.53.28.94.68,1.25,1.21s.46,1.13.46,1.82-.15,1.29-.46,1.82-.73.93-1.26,1.21c-.53.28-1.13.42-1.78.42s-1.25-.14-1.77-.42Zm2.77-1.79c.28-.29.41-.7.41-1.24s-.13-.95-.4-1.24c-.27-.29-.6-.43-.99-.43s-.73.14-1,.43c-.26.28-.4.7-.4,1.24s.13.95.39,1.24c.26.29.59.43.98.43s.73-.14,1-.43Z"/>
    <path d="m64.86,30.74c.35-.19.76-.29,1.24-.29.55,0,1.05.14,1.5.42.45.28.8.68,1.06,1.2s.39,1.12.39,1.81-.13,1.29-.39,1.82-.61.93-1.06,1.21c-.45.28-.95.43-1.5.43-.46,0-.87-.1-1.23-.29-.36-.19-.63-.44-.83-.74v4.13h-2.05v-9.89h2.05v.95c.2-.31.48-.56.83-.76Zm1.67,1.94c-.28-.29-.63-.44-1.05-.44s-.75.15-1.04.44-.43.7-.43,1.21.14.92.43,1.21c.28.3.63.44,1.04.44s.76-.15,1.04-.45c.29-.3.43-.71.43-1.22s-.14-.91-.43-1.21Z"/>
    <path d="m70.21,37.02c-.23-.21-.34-.47-.34-.79s.11-.59.34-.8c.23-.22.52-.32.88-.32s.64.11.87.32c.23.22.34.48.34.8s-.11.57-.34.79c-.23.21-.52.32-.87.32s-.65-.11-.88-.32Z"/>
    <path d="m73.59,37.02c-.23-.21-.34-.47-.34-.79s.11-.59.34-.8.52-.32.88-.32.64.11.87.32.34.48.34.8-.11.57-.34.79c-.23.21-.52.32-.87.32s-.65-.11-.88-.32Z"/>
    <path d="m76.97,37.02c-.23-.21-.34-.47-.34-.79s.11-.59.34-.8.52-.32.88-.32.64.11.87.32.34.48.34.8-.11.57-.34.79c-.23.21-.52.32-.87.32s-.65-.11-.88-.32Z"/>
    <path d="m80.36,37.02c-.23-.21-.34-.47-.34-.79s.11-.59.34-.8.52-.32.88-.32.64.11.87.32.34.48.34.8-.11.57-.34.79c-.23.21-.52.32-.87.32s-.65-.11-.88-.32Z"/>
    <path d="m83.74,37.02c-.23-.21-.34-.47-.34-.79s.11-.59.34-.8c.23-.22.52-.32.88-.32s.64.11.87.32c.23.22.34.48.34.8s-.11.57-.34.79c-.23.21-.52.32-.87.32s-.65-.11-.88-.32Z"/>
    <path d="m87.13,37.02c-.23-.21-.34-.47-.34-.79s.11-.59.34-.8c.23-.22.52-.32.88-.32s.64.11.87.32c.23.22.34.48.34.8s-.11.57-.34.79c-.23.21-.52.32-.87.32s-.65-.11-.88-.32Z"/>
  </g>
</svg>