<?xml version="1.0" encoding="UTF-8"?>
<svg id="OBJECTS" xmlns="http://www.w3.org/2000/svg" viewBox="0 0 99.33 109.03">
  <defs>
    <style>
      .cls-1 {
        fill: #fff;
      }

      .cls-2 {
        fill: #3a261b;
      }

      .cls-3 {
        fill: #cc3434;
      }
    </style>
  </defs>
  <g>
    <path class="cls-1" d="m91.95,24.97c-5.59-11.45-17.69-19.14-30.37-20.44-12.68-1.3-25.62,3.44-35.28,11.75-9.66,8.31-16.13,19.98-19.28,32.32-2.77,10.88-2.75,23.4,4.19,32.22,5.68,7.23,15.12,10.7,24.31,11.2,9.18.5,18.29-1.6,27.24-3.68,8.44,5.77,16.88,11.53,25.32,17.3-1.71-9.26-3.41-18.51-5.12-27.77,4.82-2.94,8.28-7.78,10.31-13.05,2.03-5.27,2.71-10.96,2.86-16.61.2-7.95-.69-16.1-4.18-23.25Z"/>
    <g>
      <path class="cls-2" d="m95.3,31.37c-.8-3.27-1.96-6.64-3.72-9.85-1.75-3.21-4.04-6.27-6.8-9.03-2.76-2.75-6.02-5.16-9.62-7.15-3.61-1.98-7.61-3.47-11.82-4.38C59.12.11,54.68-.22,50.22.15c-8.93.67-17.99,3.75-25.86,9.08-7.83,5.34-14.16,12.63-17.64,20.94-1.78,4.13-2.73,8.52-3,12.84-.22,4.32.21,8.53.95,12.55,1.49,8.05,4.55,15.41,8.8,21.34,4.24,5.95,9.69,10.34,15.24,13.06,5.56,2.78,11.26,3.67,16.13,3.6,4.9-.06,9.05-.85,12.39-1.58,1.85-.42,3.46-.82,4.82-1.18.35-.01.69,0,1.02.06,1.42.25,2.81,1.41,4.29,2.44,2.94,2.09,6.03,4.27,9.23,6.54,3.43,2.4,6.98,4.88,10.61,7.42.86.59,1.71,1.19,2.56,1.78v-.1s-.03-.19-.03-.19l-.09-.38-.19-.75-.37-1.5c-.32-1.28-.63-2.55-.94-3.81-.47-1.97-.93-3.91-1.39-5.82-.89-3.82-1.72-7.51-2.47-11.03-.37-1.76-.73-3.48-1.08-5.15-.08-.4-.13-.77-.11-1.09.02-.32.11-.57.29-.86.37-.55,1.01-1.18,1.52-1.8,2.13-2.47,3.79-5.02,5.12-7.43,2.65-4.85,3.85-9.19,4.46-12.18.31-1.5.47-2.68.56-3.48.09-.8.13-1.22.13-1.22,0,0-.07.42-.21,1.21-.14.79-.37,1.95-.76,3.43-.77,2.93-2.18,7.16-4.97,11.8-1.4,2.31-3.11,4.74-5.26,7.06-.27.29-.54.58-.81.88-.28.29-.6.61-.87,1.02-.28.4-.5.95-.53,1.47-.05.52.02,1,.09,1.44.31,1.69.63,3.42.95,5.2.68,3.55,1.43,7.27,2.28,11.11.44,1.92.89,3.87,1.34,5.85.12.49.24.99.36,1.49l.16.66h0s0,0,0,0c-3.21-2.21-6.34-4.37-9.36-6.46-3.25-2.22-6.38-4.35-9.37-6.39-.75-.51-1.46-1.01-2.26-1.49-.32-.19-.66-.37-1.02-.54,1.69-.48,2.59-.73,2.59-.73,0,0-.92.23-2.66.67,0,0-.02,0-.03,0-.48-.21-.99-.39-1.53-.47-.98-.14-1.9,0-2.74.15-.81.16-1.61.32-2.4.47-3.13.56-6.09.85-8.8.97-5.42.21-9.83-.27-12.83-.74-1.51-.23-2.67-.47-3.45-.64-.79-.17-1.2-.26-1.2-.26,0,0,.41.12,1.18.34.77.22,1.92.52,3.42.84,2.99.64,7.4,1.35,12.9,1.37,2.75,0,5.77-.19,8.98-.65.84-.1,1.7-.29,2.53-.41-1.11.25-2.34.52-3.71.8-3.35.65-7.5,1.34-12.33,1.29-4.81-.04-10.35-1.03-15.73-3.84-5.37-2.75-10.6-7.12-14.64-12.96-4.05-5.83-6.94-13.04-8.31-20.91-.69-3.93-1.07-8.04-.82-12.18.29-4.13,1.22-8.31,2.95-12.26,3.38-7.95,9.5-14.97,17.07-20.13,7.6-5.15,16.37-8.16,24.98-8.85,4.31-.37,8.59-.08,12.66.7,4.06.85,7.93,2.25,11.43,4.12,3.49,1.89,6.67,4.17,9.37,6.8,2.7,2.63,4.95,5.55,6.69,8.63,1.75,3.08,2.93,6.32,3.76,9.52.84,3.2,1.34,6.35,1.63,9.37.58,6.05.21,11.59-.69,16.34-.87,4.76-2.3,8.72-3.74,11.8-1.42,3.11-2.95,5.3-3.94,6.8-1.09,1.43-1.67,2.18-1.67,2.18,0,0,.59-.74,1.73-2.14,1.03-1.47,2.63-3.63,4.13-6.72,1.53-3.07,3.06-7.02,4.05-11.81,1.02-4.78,1.51-10.38,1.03-16.53-.24-3.07-.69-6.28-1.49-9.56Z"/>
      <path class="cls-2" d="m1.84,36.34s-.24.62-.59,1.76c-.36,1.15-.76,2.85-1.02,5-.55,4.28-.15,10.43,2.05,16.7,2.2,6.26,5.42,11.33,7.86,14.84,1.23,1.76,2.27,3.14,3,4.08.74.94,1.15,1.46,1.15,1.46,0,0-1.3-2.3-3.39-6.02-2.05-3.73-4.81-8.91-6.93-14.95-2.12-6.04-2.94-11.84-2.85-16.05.03-2.11.21-3.82.4-4.99.19-1.17.32-1.83.32-1.83Z"/>
      <path class="cls-2" d="m99.21,37.59c-.03-.6-.13-1.22-.2-1.86-.12-1.3-.4-2.65-.68-4.09-.65-2.85-1.63-5.93-3.05-9.01-1.45-3.06-3.19-5.79-4.95-8.12-.92-1.14-1.78-2.23-2.7-3.15-.45-.47-.86-.94-1.3-1.35-.44-.41-.87-.8-1.27-1.17-.79-.76-1.6-1.35-2.28-1.9-.67-.55-1.29-.98-1.81-1.31-1.02-.67-1.58-1.05-1.58-1.05,0,0,.5.45,1.41,1.27.46.4,1.01.89,1.61,1.52.6.62,1.32,1.28,2.02,2.1.36.4.74.82,1.13,1.26.39.44.75.94,1.15,1.42.82.97,1.57,2.09,2.4,3.24,1.58,2.36,3.15,5.04,4.55,7.99,1.36,2.96,2.41,5.9,3.21,8.62.35,1.37.72,2.67.94,3.92.12.62.27,1.22.35,1.8.08.58.17,1.14.24,1.67.19,1.07.23,2.04.32,2.9.1.86.12,1.6.13,2.21.04,1.22.07,1.89.07,1.89,0,0,.08-.67.21-1.89.07-.61.14-1.36.15-2.23.02-.87.09-1.87,0-2.96-.03-.55-.05-1.13-.08-1.73Z"/>
    </g>
  </g>
  <g>
    <path class="cls-3" d="m24.05,48.87h-3.14l-.5,1.49h-2.15l3.05-8.42h2.38l3.05,8.42h-2.17l-.5-1.49Zm-.53-1.58l-1.04-3.08-1.03,3.08h2.08Z"/>
    <path class="cls-3" d="m29.7,41.48v8.88h-2.05v-8.88h2.05Z"/>
    <path class="cls-3" d="m37.46,47.5h-4.64c.03.42.17.73.4.95.24.22.53.33.87.33.51,0,.87-.22,1.07-.65h2.18c-.11.44-.31.84-.61,1.19-.29.35-.66.63-1.1.83-.44.2-.93.3-1.48.3-.66,0-1.24-.14-1.75-.42-.51-.28-.91-.68-1.2-1.2s-.43-1.13-.43-1.82.14-1.3.43-1.82.68-.92,1.19-1.2c.51-.28,1.1-.42,1.76-.42s1.22.14,1.73.41c.5.27.9.66,1.18,1.16.28.5.43,1.09.43,1.76,0,.19-.01.39-.04.6Zm-2.06-1.14c0-.35-.12-.63-.36-.84s-.54-.31-.9-.31-.63.1-.87.3c-.24.2-.38.48-.44.85h2.57Z"/>
    <path class="cls-3" d="m41.53,43.9c.36-.21.76-.32,1.2-.32v2.17h-.56c-.51,0-.9.11-1.15.33-.26.22-.38.61-.38,1.16v3.11h-2.05v-6.7h2.05v1.12c.24-.37.54-.66.9-.87Z"/>
    <path class="cls-3" d="m47.45,48.61v1.74h-1.04c-.74,0-1.32-.18-1.74-.55s-.62-.96-.62-1.78v-2.66h-.82v-1.7h.82v-1.63h2.05v1.63h1.34v1.7h-1.34v2.69c0,.2.05.34.14.43.1.09.26.13.48.13h.73Z"/>
    <path class="cls-3" d="m49.33,50.13c-.23-.21-.34-.47-.34-.79s.11-.59.34-.8c.23-.22.52-.32.88-.32s.64.11.87.32c.23.22.34.48.34.8s-.11.57-.34.79c-.23.21-.52.32-.87.32s-.65-.11-.88-.32Zm1.96-8.5l-.24,5.75h-1.74l-.24-5.75h2.22Z"/>
    <path class="cls-3" d="m54.03,50.13c-.23-.21-.34-.47-.34-.79s.11-.59.34-.8c.23-.22.52-.32.88-.32s.64.11.87.32c.23.22.34.48.34.8s-.11.57-.34.79c-.23.21-.52.32-.87.32s-.65-.11-.88-.32Zm1.96-8.5l-.24,5.75h-1.74l-.24-5.75h2.22Z"/>
    <path class="cls-3" d="m58.73,50.13c-.23-.21-.34-.47-.34-.79s.11-.59.34-.8c.23-.22.52-.32.88-.32s.64.11.87.32c.23.22.34.48.34.8s-.11.57-.34.79c-.23.21-.52.32-.87.32s-.65-.11-.88-.32Zm1.96-8.5l-.24,5.75h-1.74l-.24-5.75h2.22Z"/>
    <path class="cls-3" d="m63.44,50.13c-.23-.21-.34-.47-.34-.79s.11-.59.34-.8c.23-.22.52-.32.88-.32s.64.11.87.32c.23.22.34.48.34.8s-.11.57-.34.79c-.23.21-.52.32-.87.32s-.65-.11-.88-.32Zm1.96-8.5l-.24,5.75h-1.74l-.24-5.75h2.22Z"/>
    <path class="cls-3" d="m68.14,50.13c-.23-.21-.34-.47-.34-.79s.11-.59.34-.8c.23-.22.52-.32.88-.32s.64.11.87.32c.23.22.34.48.34.8s-.11.57-.34.79c-.23.21-.52.32-.87.32s-.65-.11-.88-.32Zm1.96-8.5l-.24,5.75h-1.74l-.24-5.75h2.22Z"/>
    <path class="cls-3" d="m72.84,50.13c-.23-.21-.34-.47-.34-.79s.11-.59.34-.8c.23-.22.52-.32.88-.32s.64.11.87.32c.23.22.34.48.34.8s-.11.57-.34.79c-.23.21-.52.32-.87.32s-.65-.11-.88-.32Zm1.96-8.5l-.24,5.75h-1.74l-.24-5.75h2.22Z"/>
    <path class="cls-3" d="m77.55,50.13c-.23-.21-.34-.47-.34-.79s.11-.59.34-.8c.23-.22.52-.32.88-.32s.64.11.87.32c.23.22.34.48.34.8s-.11.57-.34.79c-.23.21-.52.32-.87.32s-.65-.11-.88-.32Zm1.96-8.5l-.24,5.75h-1.74l-.24-5.75h2.22Z"/>
    <path class="cls-3" d="m82.25,50.13c-.23-.21-.34-.47-.34-.79s.11-.59.34-.8c.23-.22.52-.32.88-.32s.64.11.87.32c.23.22.34.48.34.8s-.11.57-.34.79c-.23.21-.52.32-.87.32s-.65-.11-.88-.32Zm1.96-8.5l-.24,5.75h-1.74l-.24-5.75h2.22Z"/>
  </g>
</svg>