<svg xmlns="http://www.w3.org/2000/svg" width="54.978" height="54.977" viewBox="0 0 54.978 54.977">
  <g id="Instagram-black" transform="translate(1 1)">
    <path id="Path_56" data-name="Path 56" d="M1032.068,1102.759a26.465,26.465,0,0,1-26.49,26.487h-.2a26.488,26.488,0,1,1,26.687-26.486" transform="translate(-979.09 -1076.27)" fill="none" stroke="#f78627" stroke-width="2"/>
    <path id="Path_57" data-name="Path 57" d="M1078.538,1170.86a6.013,6.013,0,0,1-6.006,6.006h-15.906a6.012,6.012,0,0,1-6-6.006v-15.905a6.011,6.011,0,0,1,6-6h15.906a6.012,6.012,0,0,1,6.006,6Zm-6.006-24.31h-15.906a8.406,8.406,0,0,0-8.406,8.4v15.905a8.406,8.406,0,0,0,8.406,8.406h15.906a8.416,8.416,0,0,0,8.406-8.406v-15.905a8.415,8.415,0,0,0-8.406-8.4" transform="translate(-1038.091 -1136.252)" fill="#f78627"/>
    <path id="Path_58" data-name="Path 58" d="M1111.6,1215.8a5.887,5.887,0,1,1,5.887-5.887A5.893,5.893,0,0,1,1111.6,1215.8Zm0-14.175a8.287,8.287,0,1,0,8.287,8.288,8.3,8.3,0,0,0-8.287-8.288" transform="translate(-1085.109 -1183.261)" fill="#f78627"/>
    <path id="Path_59" data-name="Path 59" d="M1214.314,1188.272a1.852,1.852,0,1,1-1.852-1.852,1.852,1.852,0,0,1,1.852,1.852" transform="translate(-1176.687 -1170.281)" fill="#f78627"/>
  </g>
</svg>
