<svg xmlns="http://www.w3.org/2000/svg" width="50.002" height="50" viewBox="0 0 50.002 50">
  <g id="Facebook-Black" transform="translate(1 1.001)">
    <path id="Path_54" data-name="Path 54" d="M413.709,1100.271a23.979,23.979,0,0,1-24,24h-.179a24,24,0,1,1,24.18-24" transform="translate(-365.707 -1076.27)" fill="none" stroke="#f78627" stroke-width="2"/>
    <path id="Path_55" data-name="Path 55" d="M514.112,1155.64v5.091h6.765l-.91,6.878h-5.854v16.558a23.819,23.819,0,0,1-4.3.895,24.176,24.176,0,0,1-2.735.154h-.179v-17.606h-5.855v-6.878h5.855v-5.84a8.328,8.328,0,0,1,7.966-8.32,25.472,25.472,0,0,1,3.559.093l2.629.255v6.139h-4.353a2.582,2.582,0,0,0-2.582,2.582" transform="translate(-483.072 -1137.217)" fill="#f78627"/>
  </g>
</svg>
