<svg xmlns="http://www.w3.org/2000/svg" width="50.17" height="50.171" viewBox="0 0 50.17 50.171">
  <g id="Twitter-black" transform="translate(1 1)">
    <path id="Path_85" data-name="Path 85" d="M2254.021,1100.356a24.065,24.065,0,0,1-24.086,24.085h-.178a24.085,24.085,0,1,1,24.265-24.083" transform="translate(-2205.85 -1076.27)" fill="none" stroke="#f78627" stroke-width="2"/>
    <path id="logo" d="M15.131,14.981l9.465,11H22.352L14.134,16.43,7.571,25.982H0L9.926,11.537,0,0H2.243l8.679,10.088L17.853,0h7.571L15.13,14.981ZM12.059,11.41l-1.006,1.438-8,11.446H6.5l6.458-9.237,1.006-1.438L22.353,1.612H18.908l-6.85,9.8Z" transform="translate(11.743 12.779)" fill="#f78627"/>
  </g>
</svg>
