<svg xmlns="http://www.w3.org/2000/svg" width="49.926" height="49.927" viewBox="0 0 49.926 49.927">
  <g id="Linkedin-black" transform="translate(1 1)">
    <path id="Path_72" data-name="Path 72" d="M5320.676,1100.233a23.963,23.963,0,1,1-23.963-23.963,23.949,23.949,0,0,1,23.963,23.963" transform="translate(-5272.75 -1076.27)" fill="none" stroke="#f78627" stroke-width="2"/>
    <path id="Path_73" data-name="Path 73" d="M5354.947,1156.469a3.423,3.423,0,1,1-3.422-3.449,3.425,3.425,0,0,1,3.422,3.449" transform="translate(-5338.112 -1142.844)" fill="#f78627"/>
    <path id="Path_74" data-name="Path 74" d="M5429.129,1221.794v-2.907h-5.549v18.846h5.549q0-3.911,0-7.823c0-.672-.017-1.344.018-2.018a5.519,5.519,0,0,1,.3-1.589,3.047,3.047,0,0,1,1.465-1.766,3.665,3.665,0,0,1,1.766-.378,3.246,3.246,0,0,1,1.229.225,2.69,2.69,0,0,1,1.5,1.646,6.214,6.214,0,0,1,.35,2.2q.01,4.752,0,9.5h5.768q0-5.609,0-11.221a13.452,13.452,0,0,0-.08-1.555,8.492,8.492,0,0,0-.542-2.218,5.784,5.784,0,0,0-2.727-3.077,7.312,7.312,0,0,0-3.228-.773,7.085,7.085,0,0,0-1.439.106,6.434,6.434,0,0,0-3.574,1.906,6.066,6.066,0,0,0-.8,1.026v-.134" transform="translate(-5403.586 -1199.979)" fill="#f78627"/>
    <path id="Path_75" data-name="Path 75" d="M5358.053,1218.89h-5.793v18.846h5.793V1218.89" transform="translate(-5341.72 -1199.983)" fill="#f78627"/>
  </g>
</svg>
