<svg id="Expand-black" xmlns="http://www.w3.org/2000/svg" width="19.681" height="19.69" viewBox="0 0 19.681 19.69">
  <path id="Path_145" data-name="Path 145" d="M202.869,178.141a.16.16,0,0,0,.037-.166.173.173,0,0,0-.148-.1l-6.315-.074a.535.535,0,0,0-.544.544l.074,6.315a.158.158,0,0,0,.1.148.141.141,0,0,0,.166-.037l2.148-2.148,3.78,3.78a.134.134,0,0,0,.194,0l2.139-2.139a.134.134,0,0,0,0-.194l-3.78-3.78Z" transform="translate(-195.863 -177.8)" fill="#f78627"/>
  <path id="Path_146" data-name="Path 146" d="M195.841,298.923a.16.16,0,0,0-.166-.037.173.173,0,0,0-.1.147l-.074,6.315a.535.535,0,0,0,.544.544l6.315-.074a.158.158,0,0,0,.148-.1.141.141,0,0,0-.037-.166l-2.148-2.148,3.78-3.78a.134.134,0,0,0,0-.194l-2.139-2.139a.134.134,0,0,0-.194,0l-3.78,3.78Z" transform="translate(-195.5 -286.239)" fill="#f78627"/>
  <path id="Path_147" data-name="Path 147" d="M316.523,305.951a.16.16,0,0,0-.037.166.173.173,0,0,0,.147.1l6.315.074a.535.535,0,0,0,.544-.544l-.074-6.315a.158.158,0,0,0-.1-.147.141.141,0,0,0-.166.037L321,301.471l-3.78-3.78a.134.134,0,0,0-.194,0l-2.139,2.139a.134.134,0,0,0,0,.194l3.78,3.78Z" transform="translate(-303.848 -286.602)" fill="#f78627"/>
  <path id="Path_148" data-name="Path 148" d="M323.551,185.269a.16.16,0,0,0,.166.037.173.173,0,0,0,.1-.147l.074-6.315a.535.535,0,0,0-.544-.544l-6.315.074a.158.158,0,0,0-.147.1.141.141,0,0,0,.037.166l2.148,2.148-3.78,3.78a.134.134,0,0,0,0,.194l2.139,2.139a.134.134,0,0,0,.194,0l3.78-3.78Z" transform="translate(-304.211 -178.254)" fill="#f78627"/>
</svg>
