<svg id="Game-black" xmlns="http://www.w3.org/2000/svg" width="68.236" height="68.236" viewBox="0 0 68.236 68.236">
  <path id="Path_266" data-name="Path 266" d="M51.165,22.733H37.518v-9.1h25.02a3.416,3.416,0,0,0,3.412-3.412v-9.1H61.4V9.086H36.38A3.416,3.416,0,0,0,32.969,12.5V22.733H19.321a18.217,18.217,0,0,0-18.2,18.2V55.281A12.958,12.958,0,0,0,14.068,68.224h.256a12.909,12.909,0,0,0,9.944-4.657l7.492-8.99h6.913L46.16,64.31a12.943,12.943,0,0,0,23.2-7.892V40.93a18.217,18.217,0,0,0-18.2-18.2ZM64.812,56.418a8.394,8.394,0,0,1-15.047,5.118L40.912,50.028H29.629L20.773,60.655a8.372,8.372,0,0,1-6.449,3.02h-.256a8.4,8.4,0,0,1-8.394-8.394V40.93A13.663,13.663,0,0,1,19.321,27.282H51.165A13.663,13.663,0,0,1,64.812,40.93Z" transform="translate(-1.125 -1.125)" fill="#f78627"/>
  <path id="Path_267" data-name="Path 267" d="M53.874,17.438h5.514v1.9H53.874Zm0,4.738h5.514v1.9H53.874Zm-6.893-2.369H52.5v1.9H46.981Zm13.785,0h5.514v1.9H60.766ZM18.032,17.438H12.518v2.369H5.625v1.9h6.893v2.369h5.514V21.7h6.893v-1.9H18.032Z" transform="translate(-1.835 21.399)" fill="#f78627"/>
</svg>
