<svg xmlns="http://www.w3.org/2000/svg" width="50.17" height="50.171" viewBox="0 0 50.17 50.171">
  <g id="Google-black" transform="translate(1 1)">
    <path id="Path_62" data-name="Path 62" d="M2254.021,1100.356a24.065,24.065,0,0,1-24.086,24.085h-.178a24.085,24.085,0,1,1,24.265-24.083" transform="translate(-2205.85 -1076.27)" fill="none" stroke="#f78627" stroke-width="2"/>
    <path id="Path_63" data-name="Path 63" d="M2314.594,1171.722c0-.084,0-.168-.007-.252s-.005-.139-.01-.208-.008-.148-.013-.223-.008-.124-.013-.185c0-.029-.006-.057-.008-.087,0-.045-.008-.092-.012-.137-.01-.088-.019-.175-.03-.263-.008-.068-.017-.137-.027-.205h-12.963v5.4h7a7.882,7.882,0,1,1-1.962-9.7l3.688-3.687a13.076,13.076,0,1,0,3.85,13.386l.008-.028c.012-.04.023-.079.033-.12s.02-.069.03-.105c.034-.133.068-.266.1-.4.016-.069.032-.137.047-.208l.008-.033c.011-.055.023-.109.034-.165,0-.02.008-.04.012-.06.027-.136.051-.274.073-.413q.018-.1.032-.208c.005-.039.01-.076.016-.115s.008-.057.012-.085.009-.077.013-.117.009-.075.013-.112.007-.056.009-.083c.008-.071.015-.14.02-.21s.012-.136.017-.2l.008-.116c0-.043.005-.085.007-.126,0-.015,0-.03,0-.044,0-.055.006-.109.008-.164,0-.031,0-.061,0-.092,0-.141.007-.281.007-.424,0-.069,0-.14,0-.21" transform="translate(-2277.428 -1147.848)" fill="#f78627"/>
  </g>
</svg>
