<svg xmlns="http://www.w3.org/2000/svg" width="20.881" height="25.382" viewBox="0 0 20.881 25.382">
  <g id="Pause-Black" transform="translate(0)">
    <path id="Path_126" data-name="Path 126" d="M712.989,350.27h-2.963a2.415,2.415,0,0,0-2.192,1.419,2.389,2.389,0,0,0-.216.99v20.564a2.417,2.417,0,0,0,2.409,2.409h2.963a2.37,2.37,0,0,0,.988-.217,2.415,2.415,0,0,0,1.42-2.192V352.678a2.416,2.416,0,0,0-2.409-2.409" transform="translate(-707.617 -350.27)" fill="#f78627"/>
    <path id="Path_127" data-name="Path 127" d="M814.548,350.27h-2.963a2.414,2.414,0,0,0-2.193,1.419,2.387,2.387,0,0,0-.216.99v20.564a2.417,2.417,0,0,0,2.409,2.409h2.963a2.372,2.372,0,0,0,.988-.217,2.416,2.416,0,0,0,1.42-2.192V352.678a2.416,2.416,0,0,0-2.408-2.409" transform="translate(-796.075 -350.27)" fill="#f78627"/>
  </g>
</svg>
