<svg xmlns="http://www.w3.org/2000/svg" width="37.638" height="36.063" viewBox="0 0 37.638 36.063">
  <g id="Icon_feather-shopping-cart" data-name="Icon feather-shopping-cart" transform="translate(1.5 1.5)">
    <path id="Path_326" data-name="Path 326" d="M15.149,31.574A1.574,1.574,0,1,1,13.574,30,1.574,1.574,0,0,1,15.149,31.574Z" transform="translate(-0.979 -0.086)" fill="none" stroke="#f78627" stroke-linecap="round" stroke-linejoin="round" stroke-width="3"/>
    <path id="Path_327" data-name="Path 327" d="M31.649,31.574A1.574,1.574,0,1,1,30.074,30,1.574,1.574,0,0,1,31.649,31.574Z" transform="translate(-0.16 -0.086)" fill="none" stroke="#f78627" stroke-linecap="round" stroke-linejoin="round" stroke-width="3"/>
    <path id="Path_328" data-name="Path 328" d="M1.5,1.5H7.8l4.219,21.082a3.149,3.149,0,0,0,3.149,2.535h15.3a3.149,3.149,0,0,0,3.149-2.535l2.519-13.21H9.372" transform="translate(-1.5 -1.5)" fill="none" stroke="#f78627" stroke-linecap="round" stroke-linejoin="round" stroke-width="3"/>
  </g>
</svg>
