<svg xmlns="http://www.w3.org/2000/svg" width="33.932" height="33.931" viewBox="0 0 33.932 33.931">
  <g id="Facebook-Black" transform="translate(1 1)">
    <path id="Path_54" data-name="Path 54" d="M397.639,1092.236a15.951,15.951,0,0,1-15.966,15.965h-.119a15.965,15.965,0,1,1,16.085-15.964" transform="translate(-365.707 -1076.27)" fill="none" stroke="#f78627" stroke-width="2"/>
    <path id="Path_55" data-name="Path 55" d="M509.736,1152.6v3.387h4.5l-.606,4.576h-3.895v11.015a15.854,15.854,0,0,1-2.864.6,16.1,16.1,0,0,1-1.819.1h-.119v-11.711h-3.895v-4.576h3.895V1152.1a5.54,5.54,0,0,1,5.3-5.535,16.92,16.92,0,0,1,2.368.062l1.749.17v4.083h-2.9a1.718,1.718,0,0,0-1.718,1.718" transform="translate(-489.087 -1140.34)" fill="#f78627"/>
  </g>
</svg>
