<svg xmlns="http://www.w3.org/2000/svg" width="34.044" height="34.045" viewBox="0 0 34.044 34.045">
  <g id="Google-black" transform="translate(1 1)">
    <path id="Path_62" data-name="Path 62" d="M2237.894,1092.293a16.005,16.005,0,0,1-14.2,15.919,16.215,16.215,0,0,1-1.826.1h-.118a16.022,16.022,0,1,1,16.142-16.021" transform="translate(-2205.85 -1076.27)" fill="none" stroke="#f78627" stroke-width="2"/>
    <path id="Path_63" data-name="Path 63" d="M2305.834,1167.413c0-.056,0-.112,0-.168s0-.092-.006-.138-.005-.1-.009-.148-.005-.083-.009-.123c0-.019,0-.038-.006-.057s-.005-.061-.007-.091c-.007-.059-.013-.116-.02-.175s-.012-.091-.018-.137h-8.624v3.595h4.654a5.243,5.243,0,1,1-1.3-6.452l2.453-2.452a8.7,8.7,0,1,0,2.561,8.9c0-.006,0-.012.006-.018.008-.027.015-.052.022-.08s.014-.046.02-.07c.023-.089.045-.177.066-.268.011-.046.022-.091.031-.138a.171.171,0,0,0,.006-.022c.007-.036.015-.073.022-.11l.008-.04c.018-.09.034-.182.049-.275q.011-.069.021-.138c0-.026.007-.051.01-.076s0-.038.008-.057.006-.052.009-.078.006-.05.009-.075,0-.037.006-.055c.006-.047.01-.093.013-.14s.008-.09.012-.136c0-.026,0-.051.005-.077s0-.057,0-.084c0-.01,0-.02,0-.03,0-.036,0-.073.005-.109,0-.02,0-.041,0-.061,0-.094,0-.187,0-.282,0-.046,0-.093,0-.14" transform="translate(-2281.111 -1151.531)" fill="#f78627"/>
  </g>
</svg>
