<svg xmlns="http://www.w3.org/2000/svg" width="37.242" height="37.241" viewBox="0 0 37.242 37.241">
  <g id="Instagram-black" transform="translate(1 1)">
    <path id="Path_56" data-name="Path 56" d="M1014.332,1093.891a17.6,17.6,0,0,1-17.622,17.62h-.131a17.62,17.62,0,1,1,17.753-17.619" transform="translate(-979.09 -1076.27)" fill="none" stroke="#f78627" stroke-width="2"/>
    <path id="Path_57" data-name="Path 57" d="M1068.388,1162.722a4,4,0,0,1-4,4h-10.581a4,4,0,0,1-3.994-4v-10.581a4,4,0,0,1,3.994-3.994h10.581a4,4,0,0,1,4,3.994Zm-4-16.172h-10.581a5.6,5.6,0,0,0-5.3,3.81,5.545,5.545,0,0,0-.292,1.781v10.581a5.593,5.593,0,0,0,5.592,5.592h10.581a5.6,5.6,0,0,0,5.592-5.592v-10.581a5.6,5.6,0,0,0-5.592-5.591" transform="translate(-1041.482 -1139.7)" fill="#f78627"/>
    <path id="Path_58" data-name="Path 58" d="M1108.823,1211.06a3.916,3.916,0,1,1,3.916-3.916A3.92,3.92,0,0,1,1108.823,1211.06Zm0-9.429a5.513,5.513,0,1,0,5.513,5.513,5.519,5.519,0,0,0-5.513-5.513" transform="translate(-1091.202 -1189.411)" fill="#f78627"/>
    <path id="Path_59" data-name="Path 59" d="M1213.074,1187.652a1.232,1.232,0,1,1-1.232-1.232,1.232,1.232,0,0,1,1.232,1.232" transform="translate(-1188.043 -1175.684)" fill="#f78627"/>
  </g>
</svg>
