<svg xmlns="http://www.w3.org/2000/svg" width="33.882" height="33.882" viewBox="0 0 33.882 33.882">
  <g id="Linkedin-black" transform="translate(1 1)">
    <path id="Path_72" data-name="Path 72" d="M5304.631,1092.211a15.941,15.941,0,1,1-15.941-15.941,15.933,15.933,0,0,1,15.941,15.941" transform="translate(-5272.749 -1076.27)" fill="none" stroke="#f78627" stroke-width="2"/>
    <path id="Path_73" data-name="Path 73" d="M5352.655,1155.314a2.277,2.277,0,1,1-2.276-2.294,2.278,2.278,0,0,1,2.276,2.294" transform="translate(-5341.456 -1146.25)" fill="#f78627"/>
    <path id="Path_74" data-name="Path 74" d="M5427.271,1220.821v-1.934h-3.691v12.537h3.691q0-2.6,0-5.2c0-.447-.011-.894.012-1.342a3.673,3.673,0,0,1,.2-1.057,2.032,2.032,0,0,1,.975-1.174,2.433,2.433,0,0,1,1.175-.251,2.161,2.161,0,0,1,.818.15,1.791,1.791,0,0,1,1,1.1,4.129,4.129,0,0,1,.232,1.461q.007,3.162,0,6.323h3.837q0-3.732,0-7.465a9.153,9.153,0,0,0-.053-1.034,5.676,5.676,0,0,0-.361-1.475,3.846,3.846,0,0,0-1.813-2.047,4.865,4.865,0,0,0-2.147-.514,4.709,4.709,0,0,0-.958.07,4.278,4.278,0,0,0-2.377,1.268,4.041,4.041,0,0,0-.535.682v-.089" transform="translate(-5410.279 -1206.309)" fill="#f78627"/>
    <path id="Path_75" data-name="Path 75" d="M5356.113,1218.89h-3.854v12.537h3.854V1218.89" transform="translate(-5345.248 -1206.313)" fill="#f78627"/>
  </g>
</svg>
