<svg xmlns="http://www.w3.org/2000/svg" width="34.044" height="34.045" viewBox="0 0 34.044 34.045">
  <g id="Twitter-black" transform="translate(1 1)">
    <path id="Path_85" data-name="Path 85" d="M2237.894,1092.293a16.005,16.005,0,0,1-14.2,15.919,16.215,16.215,0,0,1-1.826.1h-.118a16.022,16.022,0,1,1,16.142-16.021" transform="translate(-2205.85 -1076.27)" fill="none" stroke="#f78627" stroke-width="2"/>
    <path id="logo" d="M10.065,9.966l6.3,7.319H14.869L9.4,10.93,5.036,17.284H0L6.6,7.675,0,0H1.492L7.265,6.711,11.876,0h5.036L10.065,9.966ZM8.022,7.59l-.669.957L2.03,16.161H4.321l4.3-6.145.669-.957L14.87,1.072H12.578L8.022,7.59Z" transform="translate(7.812 8.501)" fill="#f78627"/>
  </g>
</svg>
