<svg xmlns="http://www.w3.org/2000/svg" xmlns:xlink="http://www.w3.org/1999/xlink" width="136.417" height="209.736" viewBox="0 0 136.417 209.736">
  <defs>
    <linearGradient id="linear-gradient" x1="0.072" y1="2.766" x2="0.923" y2="-2.346" gradientUnits="objectBoundingBox">
      <stop offset="0" stop-color="#d7df23"/>
      <stop offset="0.03" stop-color="#dcba27" stop-opacity="0.949"/>
      <stop offset="0.07" stop-color="#e2952b" stop-opacity="0.91"/>
      <stop offset="0.11" stop-color="#e6762f" stop-opacity="0.871"/>
      <stop offset="0.16" stop-color="#ea5f32" stop-opacity="0.839"/>
      <stop offset="0.2" stop-color="#ec4e34" stop-opacity="0.82"/>
      <stop offset="0.24" stop-color="#ee4435" stop-opacity="0.8"/>
      <stop offset="0.3" stop-color="#ef4136" stop-opacity="0.8"/>
      <stop offset="0.34" stop-color="#ef4636" stop-opacity="0.812"/>
      <stop offset="0.4" stop-color="#f15738" stop-opacity="0.839"/>
      <stop offset="0.47" stop-color="#f4723a" stop-opacity="0.89"/>
      <stop offset="0.55" stop-color="#f8973d" stop-opacity="0.961"/>
      <stop offset="0.6" stop-color="#fbb040"/>
      <stop offset="0.69" stop-color="#f5c730"/>
      <stop offset="0.78" stop-color="#f1d923"/>
      <stop offset="0.89" stop-color="#eee41c"/>
      <stop offset="1" stop-color="#eee81a"/>
    </linearGradient>
    <linearGradient id="linear-gradient-2" x1="1.444" y1="0.051" x2="-0.216" y2="0.749" gradientUnits="objectBoundingBox">
      <stop offset="0" stop-color="#d7df23"/>
      <stop offset="0.03" stop-color="#dcba27" stop-opacity="0.949"/>
      <stop offset="0.07" stop-color="#e2952b" stop-opacity="0.91"/>
      <stop offset="0.11" stop-color="#e6762f" stop-opacity="0.871"/>
      <stop offset="0.15" stop-color="#ea5f32" stop-opacity="0.839"/>
      <stop offset="0.2" stop-color="#ec4e34" stop-opacity="0.82"/>
      <stop offset="0.24" stop-color="#ee4435" stop-opacity="0.8"/>
      <stop offset="0.29" stop-color="#ef4136" stop-opacity="0.8"/>
      <stop offset="0.34" stop-color="#ef4636" stop-opacity="0.812"/>
      <stop offset="0.4" stop-color="#f15738" stop-opacity="0.839"/>
      <stop offset="0.47" stop-color="#f4723a" stop-opacity="0.89"/>
      <stop offset="0.55" stop-color="#f8973d" stop-opacity="0.961"/>
      <stop offset="0.6" stop-color="#fbb040"/>
      <stop offset="0.69" stop-color="#f5c730"/>
      <stop offset="0.78" stop-color="#f1d923"/>
      <stop offset="0.89" stop-color="#eee41c"/>
      <stop offset="1" stop-color="#eee81a"/>
    </linearGradient>
    <linearGradient id="linear-gradient-3" x1="0" y1="0.5" x2="1" y2="0.5" xlink:href="#linear-gradient-2"/>
    <linearGradient id="linear-gradient-4" x1="0" y1="0.5" x2="1" y2="0.5" xlink:href="#linear-gradient-2"/>
  </defs>
  <g id="Asset_22" data-name="Asset 22" transform="translate(40.812 -106.728)">
    <g id="Black-Bg" transform="translate(-40.812 106.728)">
      <g id="full-color" transform="translate(0 0)">
        <path id="Path_318" data-name="Path 318" d="M239.678,810.259l10.833-29.805c-106.623-.29,1.432-1.571-48.816,0,2.412-3.256,3.694-4.112,10.109-12.947q6.961-.185,13.922-.367,27.425.049,54.846.1-20.445,21.511-40.894,43.026Z" transform="translate(-144.429 -600.864)" fill="url(#linear-gradient)"/>
        <path id="Path_319" data-name="Path 319" d="M130.6,384.635l74.313-103.169L140.7,284.589q9.473-9.8,18.946-19.6Q185.157,240,210.671,215.01l-31.9,52.042q29.1.366,58.2.735L130.6,384.635Z" transform="translate(-100.554 -215.01)" fill="url(#linear-gradient-2)"/>
        <path id="Path_320" data-name="Path 320" d="M30.83,482.293q38.149-53.232,76.3-106.461l-65.673,3.409Q51.174,369.118,60.888,359,87.052,333.19,113.22,307.38L80.439,361.067q29.756.289,59.514.581-54.56,60.32-109.12,120.642Z" transform="translate(-30.83 -279.562)" fill="url(#linear-gradient-3)"/>
        <path id="Path_321" data-name="Path 321" d="M161.363,639.333q8.235-8.709,16.473-17.416L113.3,625.739,187.618,522.57,81.25,639.418l20.984.265,59.132-.352Z" transform="translate(-66.066 -429.947)" fill="url(#linear-gradient-4)"/>
      </g>
    </g>
  </g>
</svg>
